# Blender v2.69 (sub 0) OBJ File: ''
# www.blender.org
mtllib 3dbox.mtl
o Cube
v 1.000000 -1.000000 -1.000000
v 1.000000 -1.000000 1.000000
v -1.000000 -1.000000 1.000000
v -1.000000 -1.000000 -1.000000
v 1.000000 1.000000 -0.999999
v 0.999999 1.000000 1.000001
v -1.000000 1.000000 1.000000
v -1.000000 1.000000 -1.000000
vt 0.666667 0.000000
vt 1.000000 0.000000
vt 1.000000 0.333333
vt 0.333333 0.666667
vt 0.333333 0.333333
vt 0.666667 0.666667
vt 0.000000 0.333333
vt 0.333333 0.000000
vt 0.666667 0.333333
vt 1.000000 0.666667
vt 0.000000 0.666667
vt 0.000000 0.000000
vt 0.666667 0.333334
vn 0.000000 -1.000000 0.000000
vn 0.000000 1.000000 0.000000
vn 1.000000 -0.000000 0.000000
vn 0.000000 -0.000000 1.000000
vn -1.000000 -0.000000 -0.000000
vn 0.000000 0.000000 -1.000000
vn 1.000000 0.000000 0.000001
usemtl Material
s off
f 1/1/1 2/2/1 3/3/1
f 5/4/2 8/5/2 6/6/2
f 1/5/3 5/7/3 2/8/3
f 2/5/4 6/8/4 3/9/4
f 3/9/5 7/3/5 8/10/5
f 5/7/6 1/5/6 8/11/6
f 4/9/1 1/1/1 3/3/1
f 5/7/7 6/12/7 2/8/7
f 1/5/6 4/4/6 8/11/6
f 8/5/2 7/13/2 6/6/2
f 4/6/5 3/9/5 8/10/5
f 6/8/4 7/1/4 3/9/4
