# Blender v2.69 (sub 0) OBJ File: ''
# www.blender.org
mtllib 3dbox_bumped.mtl
o Cube.001
v 1.000000 -1.000000 -1.000000
v 1.000000 -1.000000 1.000000
v -1.000000 -1.000000 1.000000
v 1.000000 1.000000 -0.999999
v -1.000000 1.000000 -1.000000
v 0.999999 1.000000 1.000001
v -1.000000 1.000000 1.000000
v -1.000000 -1.000000 -1.000000
vt 0.666667 0.000000
vt 1.000000 0.000000
vt 1.000000 0.333333
vt 0.333333 0.666667
vt 0.333333 0.333333
vt 0.666667 0.666667
vt 0.000000 0.333333
vt 0.333333 0.000000
vt 0.666667 0.333333
vt 1.000000 0.666667
vt 0.000000 0.666667
vt 0.000000 0.000000
vt 0.666667 0.333334
vn 0.000000 -1.000000 -0.000000
vn -0.000000 1.000000 0.000000
vn 1.000000 0.000000 0.000000
vn 0.000000 -0.000001 1.000000
vn -1.000000 0.000000 0.000000
vn 0.000001 0.000001 -1.000000
vn 1.000000 0.000000 0.000001
vn 0.000000 0.000000 -1.000000
vn -0.000000 -0.000000 1.000000
usemtl Material.001
s off
f 1/1/1 2/2/1 3/3/1
f 4/4/2 5/5/2 6/6/2
f 1/5/3 4/7/3 2/8/3
f 2/5/4 6/8/4 3/9/4
f 3/9/5 7/3/5 5/10/5
f 4/7/6 1/5/6 5/11/6
f 8/9/1 1/1/1 3/3/1
f 4/7/7 6/12/7 2/8/7
f 1/5/8 8/4/8 5/11/8
f 5/5/2 7/13/2 6/6/2
f 8/6/5 3/9/5 5/10/5
f 6/8/9 7/1/9 3/9/9
