# Blender v2.69 (sub 0) OBJ File: ''
# www.blender.org
mtllib abes.mtl
o Plane
v 2.261871 1.773584 -0.432578
v 1.828552 2.297898 -0.657081
v 1.991790 1.857476 -0.668381
v 0.810939 -0.561086 -0.586638
v 0.466972 -0.429541 -0.308326
v 0.395076 -0.493753 -0.303349
v -0.220151 -1.378091 -0.260760
v -0.622019 0.388583 -0.232938
v -1.066548 1.291477 -0.456664
v -0.393137 0.280672 -0.263173
v -0.239574 0.164001 -0.315176
v 0.227633 -0.230868 -0.641898
v -0.091560 0.040241 -0.389629
v -0.122130 -0.618502 -0.522045
v -0.327109 0.065620 -0.507854
v 0.161475 -0.753685 -0.287178
v 0.348303 -0.950538 -0.554612
v 0.154211 -0.235008 -0.541175
v 0.306446 -0.586327 -0.297214
v 0.331000 -0.559980 -0.298913
v 0.382428 0.500640 -0.302472
v 0.741691 -0.366091 -0.581844
v 0.695919 -0.158317 -0.578675
v 0.987766 1.075508 -0.598877
v 0.706185 0.477645 -0.579385
v 0.672675 0.236971 -0.577065
v 0.666144 0.037839 -0.576613
v 0.427576 0.915874 -0.560097
v 0.355979 1.057765 -0.555140
v 0.186499 0.946747 -0.288908
v -0.142165 1.494720 -0.266156
v 0.298973 1.224587 -0.551194
v 0.270060 1.361183 -0.549193
v 0.150014 1.589339 -0.286381
v 0.117232 0.081057 -0.538614
v 0.077406 0.336741 -0.535857
v 0.028371 0.558976 -0.532462
v -0.035482 0.777948 -0.528042
v -0.697554 1.680301 -0.482207
v -0.573674 1.564414 -0.490784
v -0.457199 1.451019 -0.498847
v -0.268826 1.219615 -0.511887
v -0.142413 1.009829 -0.520639
v 0.064231 1.791808 -0.280443
v -0.584167 2.546284 -0.490055
v -0.388611 2.772303 -0.249093
v -1.075068 2.752014 -0.456072
v -1.220423 3.131751 -0.191509
v -0.130581 2.709710 -0.521456
v 0.278683 1.909609 -0.549789
v 0.113385 2.162567 -0.538346
v -0.015264 2.417922 -0.529439
v -0.551816 3.124179 -0.492294
v -1.248603 3.603112 -0.444058
v -1.560540 3.952236 -0.422460
v -1.073842 3.437704 -0.456156
v -0.881887 3.294811 -0.469444
v -1.541410 3.689361 -0.423787
v -1.935522 2.525450 -0.396505
v -2.039782 2.464529 -0.389288
v -1.635124 2.400562 -0.162801
v -1.810789 2.655902 -0.405140
v -1.491371 2.601334 -0.172753
v -1.686527 2.832599 -0.413743
v -1.600342 3.017089 -0.419709
v -1.524471 3.434340 -0.424960
v -1.535971 3.228285 -0.424164
v -1.278555 2.992514 -0.187485
v -1.395356 2.787289 -0.179399
v -1.324620 2.405647 -0.438796
v -1.546185 2.243596 -0.168959
v -1.305273 2.294667 -0.440137
v -1.421450 2.065580 -0.177594
v -1.270487 2.170482 -0.442545
v -1.017985 1.630790 -0.368381
v -0.847748 1.517944 -0.471811
v -0.921765 1.584085 -0.466686
v -1.006449 1.683729 -0.460823
v -1.138468 1.739569 -0.264562
v -1.104108 1.819166 -0.454063
v -1.275691 1.877785 -0.209831
v -1.170162 1.943062 -0.449490
v -1.226619 2.064164 -0.445581
v -1.925997 2.289097 -0.397166
v -1.799428 2.129572 -0.405928
v -1.667083 1.990011 -0.415090
v -1.530501 1.864833 -0.424545
v -1.358585 1.740907 -0.436446
v -1.179021 1.637106 -0.448877
v -1.005345 1.565463 -0.460901
v 0.584665 1.534395 -0.570972
v 0.335563 1.675626 -0.299226
v 0.508474 1.778238 -0.311196
v 0.841353 1.738210 -0.588740
v 0.672393 1.887381 -0.322544
v 0.845979 2.070610 -0.334560
v 1.081994 1.985049 -0.605399
v 0.972284 2.211196 -0.343304
v 1.085907 2.366491 -0.351169
v 1.310671 2.261207 -0.621230
v 1.204027 2.518521 -0.359346
v 1.086827 2.820970 -0.605733
v 0.914247 2.549972 -0.593786
v 0.726850 2.305760 -0.580814
v 0.516899 2.075680 -0.566279
v 1.552596 2.278157 -0.637977
v 2.119202 2.574166 -0.422701
v 1.461819 2.810787 -0.631692
v 1.937009 2.864614 -0.664588
v 2.281555 2.741013 -0.484809
v 2.423530 2.908642 -0.550910
v 2.302403 3.005280 -0.689883
v 2.665095 3.229319 -0.714990
v 2.490533 2.775470 -0.702907
v 2.414666 2.544126 -0.697655
v 2.408613 2.368178 -0.697236
v 2.690882 1.685822 -0.716777
v 2.586393 1.828549 -0.709544
v 2.501235 1.990393 -0.703648
v 2.443440 2.177126 -0.699647
v 2.129050 1.623984 -0.423383
v 2.402169 1.490119 -0.696791
v 2.249271 1.395705 -0.686207
v 2.026331 1.535001 -0.416273
v 2.082563 1.315744 -0.674666
v 1.925201 1.470983 -0.409273
v 1.903029 1.256402 -0.662238
v 1.751482 1.363459 -0.397246
v 1.686737 1.195018 -0.647264
v 1.849758 1.425426 -0.404050
v 1.617192 1.281386 -0.460869
v 1.488460 1.157915 -0.633538
v 1.529139 1.245221 -0.477561
v 1.437809 1.207739 -0.498583
v 1.282563 1.160609 -0.619285
v 1.475001 1.300923 -0.632607
v 1.665578 1.472983 -0.645800
v 1.838869 1.659491 -0.657795
v -0.246316 1.752386 -0.513445
v -0.366644 -2.172912 -0.505120
v -0.207164 2.985801 -0.516154
v 1.903029 1.256402 -0.662238
v 0.874627 0.895113 -0.591045
v 0.786203 0.701659 -0.584924
v 1.751482 1.363459 -0.397246
vt 0.729638 0.983509
vt 0.641988 0.856564
vt 0.655856 0.956045
vt 0.707612 0.566906
vt 0.612531 0.595097
vt 0.609446 0.615039
vt 0.540603 0.517134
vt 0.547928 0.907075
vt 0.622675 1.116144
vt 0.649172 0.601419
vt 0.663820 0.649727
vt 0.734826 0.397034
vt 0.675038 0.690735
vt 0.734826 0.827567
vt 0.689037 0.732957
vt 0.734826 0.542768
vt 0.815668 0.774172
vt 0.815668 0.397034
vt 0.436106 0.539254
vt 0.411079 0.606225
vt 0.436106 0.645620
vt 0.782322 0.380556
vt 0.827946 0.384969
vt 0.827946 0.350326
vt 0.745521 0.281865
vt 0.745521 0.241718
vt 0.705327 0.266013
vt 0.738508 0.382634
vt 0.604050 0.686281
vt 0.613257 0.827779
vt 0.685618 0.692242
vt 0.609736 0.523207
vt 0.668349 0.453777
vt 0.595109 0.412606
vt 0.606853 0.641309
vt 0.607508 0.633943
vt 0.547862 0.457726
vt 0.533886 0.468277
vt 0.560640 0.446421
vt 0.565571 0.441884
vt 0.524799 0.730331
vt 0.523490 0.918475
vt 0.606880 0.915970
vt 0.603374 0.871886
vt 0.626993 0.872014
vt 0.626993 0.699692
vt 0.564267 0.766041
vt 0.605722 0.792903
vt 0.613885 0.748463
vt 0.601963 0.831295
vt 1.000000 0.350326
vt 1.000000 0.162627
vt 0.948878 0.275697
vt 0.901033 0.397034
vt 0.824802 0.469178
vt 0.824415 0.503342
vt 0.896377 0.501261
vt 0.901033 0.638894
vt 0.820757 0.540542
vt 0.815668 0.569062
vt 0.631447 0.897299
vt 0.552481 0.897767
vt 0.542240 0.963109
vt 0.604419 0.591517
vt 0.514296 0.668299
vt 0.601728 0.647193
vt 0.601730 0.696190
vt 0.604256 0.745117
vt 0.563878 0.900250
vt 0.679450 0.963452
vt 0.663484 0.933784
vt 0.648631 0.904953
vt 0.626329 0.848184
vt 0.530134 0.770736
vt 0.613315 0.798576
vt 0.519718 0.954358
vt 0.567527 0.671751
vt 0.644894 0.874847
vt 0.644894 0.645529
vt 0.533493 0.781163
vt 0.615429 0.888097
vt 0.615429 0.724533
vt 0.530861 0.643114
vt 0.594525 0.694684
vt 0.641931 0.467958
vt 0.565678 0.453021
vt 0.558164 0.517712
vt 0.546861 0.578129
vt 0.641931 0.862936
vt 0.533184 0.768340
vt 0.556304 0.939900
vt 0.554088 1.039899
vt 0.554730 0.889074
vt 0.549383 0.839925
vt 0.517623 0.850196
vt 0.640231 1.004375
vt 0.625544 0.949629
vt 0.417632 0.723701
vt 0.436106 0.741969
vt 0.554670 0.688434
vt 0.625173 0.727420
vt 0.640231 0.697531
vt 0.539523 0.733457
vt 0.612217 0.766999
vt 0.605941 0.807439
vt 0.611566 0.896488
vt 0.604465 0.853039
vt 0.521209 0.819815
vt 0.531674 0.774405
vt 0.590005 0.713714
vt 0.463233 0.733784
vt 0.515268 0.673667
vt 0.474602 0.646379
vt 0.550452 0.691700
vt 0.550427 0.871667
vt 0.631799 0.906166
vt 0.631799 0.867303
vt 0.555470 0.849037
vt 0.629034 0.820570
vt 0.559592 0.822252
vt 0.581994 0.694875
vt 0.553452 0.654789
vt 0.557685 0.675234
vt 0.560955 0.703047
vt 0.605719 0.728684
vt 0.563378 0.738909
vt 0.620553 0.769618
vt 0.562897 0.769123
vt 0.561489 0.797752
vt 0.000000 0.839865
vt 0.078113 0.902972
vt 0.081591 0.859547
vt 0.081591 0.817821
vt 0.004873 0.802259
vt 0.078632 0.779223
vt 0.007132 0.757296
vt 0.073531 0.742869
vt 0.010157 0.709540
vt 0.063458 0.703324
vt 0.011658 0.672864
vt 0.050152 0.666753
vt 0.745521 0.326248
vt 0.774645 0.335906
vt 0.778170 0.296051
vt 0.761387 0.356480
vt 0.778170 0.382634
vt 0.633852 0.820051
vt 0.555817 0.853741
vt 0.556243 0.810569
vt 0.628260 0.750988
vt 0.555212 0.768496
vt 0.545943 0.717406
vt 0.616278 0.680855
vt 0.538321 0.679530
vt 0.527980 0.642673
vt 0.599864 0.610191
vt 0.518367 0.605265
vt 0.630126 0.334739
vt 0.705327 0.362980
vt 0.702777 0.300381
vt 0.631935 0.298116
vt 0.705327 0.241718
vt 0.632714 0.261204
vt 0.539377 0.844607
vt 0.540844 0.882560
vt 0.607774 0.852609
vt 0.605519 0.789875
vt 0.537867 0.793424
vt 0.607774 0.727993
vt 0.539679 0.751345
vt 0.542225 0.708183
vt 0.626368 0.413259
vt 0.513040 0.907998
vt 0.479817 0.918452
vt 0.615764 0.562019
vt 0.579540 0.423855
vt 0.633852 0.507032
vt 0.612848 0.712800
vt 0.619742 0.640215
vt 0.546611 0.635783
vt 0.534963 0.820135
vt 0.608404 0.810755
vt 0.553331 0.866958
vt 0.573187 0.909864
vt 0.611370 0.894964
vt 0.619742 0.986109
vt 0.770002 0.864480
vt 0.811938 0.941884
vt 0.815668 0.864776
vt 0.815316 0.821403
vt 0.747653 0.827547
vt 0.609149 0.714032
vt 0.527440 0.684920
vt 0.601056 0.747124
vt 0.512596 0.851772
vt 0.609149 0.904704
vt 0.601588 0.867396
vt 0.597318 0.828279
vt 0.597615 0.787017
vt 0.621931 0.645218
vt 0.534845 0.716097
vt 0.541869 0.756326
vt 0.621931 0.719691
vt 0.620843 0.758206
vt 0.544151 0.784762
vt 0.616946 0.797898
vt 0.543617 0.810394
vt 0.609594 0.837962
vt 0.542410 0.854179
vt 0.599543 0.885215
vt 0.542959 0.829295
vt 0.553516 0.888454
vt 0.588070 0.926613
vt 0.554543 0.908977
vt 0.556223 0.930288
vt 0.571294 0.965471
vt 0.540572 0.862751
vt 0.541599 0.913356
vt 0.571023 0.881523
vt 0.577681 0.860840
vt 0.583376 0.840823
vt 0.537717 0.809483
vt 0.598286 0.808515
vt 0.625060 0.992446
vt 0.597091 0.710634
vt 0.593452 0.670683
vt 0.533452 0.758185
vt 0.598421 0.738987
vt 0.598299 0.783595
vt 0.598421 0.764656
vt 0.199633 0.705339
vt 0.229078 0.795596
vt 0.229078 0.626640
vt 0.622675 0.354979
vt 0.729638 0.808341
vt 0.741458 0.693159
vt 0.707612 0.963940
vt 0.679450 0.296699
vt 0.613885 0.959355
vt 0.563117 0.855454
vt 0.534483 0.877668
vt 0.512557 0.700444
vn 0.158757 0.008942 0.987274
vn -0.245413 -0.498546 0.831399
vn -0.644415 0.066565 0.761773
vn 0.592467 -0.151677 0.791187
vn 0.226630 -0.032777 0.973418
vn 0.057344 0.018097 0.998169
vn 0.027100 -0.208594 0.977599
vn -0.176824 0.018983 0.984039
vn 0.013158 0.300399 0.953723
vn 0.214759 -0.157506 0.963866
vn 0.296243 -0.166601 0.940458
vn 0.572474 -0.084841 0.815522
vn 0.427107 -0.223701 0.876064
vn 0.146795 0.327651 0.933325
vn 0.299343 -0.448965 0.841917
vn 0.050966 -0.000916 0.998688
vn 0.559129 -0.406574 0.722546
vn -0.557835 0.131971 0.819392
vn 0.057009 -0.019562 0.998169
vn 0.055361 0.014008 0.998352
vn 0.060762 -0.010895 0.998077
vn 0.697095 0.153080 0.700447
vn 0.825242 0.166377 0.539717
vn 0.281956 0.188178 0.940792
vn 0.631227 -0.184513 0.753331
vn 0.666450 -0.041601 0.744388
vn 0.758818 0.082491 0.646058
vn 0.369236 0.460633 0.807144
vn 0.693996 0.317527 0.646178
vn 0.121860 0.035676 0.991882
vn -0.174352 -0.158666 0.971801
vn 0.605856 0.169095 0.777397
vn 0.501490 -0.297218 0.812508
vn 0.210242 -0.363170 0.907651
vn -0.602746 -0.073623 0.794529
vn -0.564609 -0.113377 0.817535
vn -0.556167 -0.161478 0.815232
vn -0.582966 -0.262816 0.768816
vn -0.460233 0.119186 0.879761
vn -0.456448 -0.535214 0.710775
vn -0.471221 -0.493937 0.730737
vn -0.548487 -0.402720 0.732789
vn -0.583325 -0.351372 0.732304
vn 0.092074 0.282174 0.954924
vn -0.416741 -0.463053 0.782246
vn 0.202826 0.096500 0.974425
vn 0.191844 -0.536838 0.821584
vn 0.003571 0.150243 0.988617
vn 0.738142 0.268025 0.619120
vn 0.154427 0.634138 0.757642
vn 0.688864 0.350174 0.634700
vn 0.791057 0.310136 0.527299
vn 0.321131 0.622121 0.714032
vn 0.510906 0.429514 0.744643
vn -0.039426 0.255565 0.965988
vn 0.441998 0.456276 0.772301
vn 0.367373 0.534570 0.761099
vn -0.640749 -0.049702 0.766140
vn -0.354500 0.555221 0.752369
vn -0.471028 0.116299 0.874418
vn -0.127934 0.005280 0.991760
vn -0.465654 0.417899 0.780082
vn 0.112125 -0.018189 0.993500
vn -0.548898 0.334884 0.765874
vn -0.556159 0.264730 0.787785
vn -0.622530 -0.021987 0.782287
vn -0.569045 0.105404 0.815523
vn 0.078555 -0.004059 0.996887
vn 0.039674 -0.006958 0.999176
vn 0.681288 -0.133127 0.719808
vn 0.052980 -0.048647 0.997406
vn 0.746122 0.207873 0.632528
vn 0.122593 -0.077670 0.989410
vn 0.792878 0.255857 0.553065
vn 0.425001 -0.274026 0.862667
vn 0.407634 -0.201387 0.890661
vn 0.663296 0.671593 0.330153
vn 0.744855 0.540916 0.390641
vn 0.342998 -0.208380 0.915922
vn 0.768090 0.500726 0.399137
vn 0.210303 -0.157598 0.964812
vn 0.801800 0.384215 0.457707
vn 0.774969 0.364681 0.516169
vn -0.485727 -0.383764 0.785363
vn -0.482133 -0.438428 0.758505
vn -0.489050 -0.510215 0.707468
vn -0.482418 -0.596337 0.641603
vn -0.439091 -0.703547 0.558767
vn -0.343983 -0.785000 0.515218
vn -0.240598 -0.808076 0.537704
vn 0.431995 -0.591729 0.680615
vn 0.255867 -0.069308 0.964202
vn 0.071505 0.015259 0.997314
vn 0.528313 -0.540151 0.655075
vn 0.095737 -0.042451 0.994476
vn 0.062410 -0.000519 0.998047
vn 0.584969 -0.476413 0.656386
vn 0.085116 -0.011200 0.996277
vn 0.049074 0.008454 0.998749
vn 0.362786 -0.590016 0.721296
vn -0.034974 0.133122 0.990478
vn -0.222343 0.562545 0.796308
vn -0.541963 0.424620 0.725241
vn -0.513315 0.472508 0.716411
vn -0.436077 0.553030 0.709926
vn 0.094604 -0.694622 0.713128
vn 0.143101 0.098148 0.984802
vn 0.022899 0.660549 0.750434
vn -0.112389 0.612876 0.782145
vn 0.284616 0.127445 0.950102
vn 0.325022 0.199927 0.924314
vn -0.267764 0.665844 0.696387
vn 0.278917 0.262539 0.923731
vn 0.732999 -0.276860 0.621338
vn 0.689061 -0.149794 0.709054
vn 0.713840 0.074945 0.696287
vn 0.560360 -0.080354 0.824342
vn 0.576648 0.339616 0.743060
vn 0.631137 0.229559 0.740924
vn 0.708437 0.140196 0.691709
vn 0.003601 -0.002411 0.999969
vn 0.423379 -0.571652 0.702826
vn 0.405940 -0.611483 0.679192
vn 0.043703 -0.007721 0.998993
vn 0.344221 -0.695925 0.630238
vn 0.044710 -0.009461 0.998932
vn 0.318910 -0.768620 0.554544
vn -0.142613 -0.070406 0.987243
vn 0.239751 -0.842866 0.481763
vn 0.008972 -0.001740 0.999939
vn -0.263253 -0.201361 0.943449
vn 0.147943 -0.898985 0.412237
vn -0.167669 -0.079836 0.982574
vn -0.365123 -0.165685 0.916074
vn -0.563769 -0.197092 0.802072
vn -0.503690 0.734324 0.455043
vn -0.565747 0.631295 0.530469
vn -0.507926 0.557868 0.656350
vn -0.487631 0.691529 0.532920
vn 0.016894 -0.296668 0.954831
vn 0.533854 0.445386 0.718770
usemtl Material.001
s 1
f 1/1/1 2/2/2 3/3/3
f 4/4/4 5/5/5 6/6/6
f 7/7/7 8/8/8 9/9/9
f 8/10/8 10/11/10 9/12/9
f 10/11/10 11/13/11 9/12/9
f 12/14/12 9/12/9 13/15/13
f 9/12/9 11/13/11 13/15/13
f 14/16/14 8/17/8 7/18/7
f 15/19/15 10/20/10 8/21/8
f 15/22/15 11/23/11 10/24/10
f 13/25/13 11/26/11 15/27/15
f 15/27/15 12/28/12 13/25/13
f 16/29/16 7/30/7 17/31/17
f 18/32/18 14/33/14 16/34/16
f 19/35/19 17/31/17 4/4/4
f 4/4/4 20/36/20 19/35/19
f 4/4/4 6/6/6 20/36/20
f 18/32/18 6/37/6 5/38/5
f 20/39/20 6/37/6 18/32/18
f 19/40/19 20/39/20 18/32/18
f 16/34/16 19/40/19 18/32/18
f 21/41/21 5/42/5 22/43/22
f 22/43/22 23/44/23 21/41/21
f 24/45/24 21/46/21 25/47/25
f 21/41/21 26/48/26 25/49/25
f 27/50/27 26/48/26 21/41/21
f 21/41/21 23/44/23 27/50/27
f 21/51/21 24/52/24 28/53/28
f 21/54/21 28/55/28 29/56/29
f 29/56/29 30/57/30 21/54/21
f 30/57/30 29/56/29 31/58/31
f 29/56/29 32/59/32 31/58/31
f 32/59/32 33/60/33 31/58/31
f 33/61/33 34/62/34 31/63/31
f 35/64/35 18/32/18 5/38/5
f 5/38/5 21/65/21 35/64/35
f 21/65/21 36/66/36 35/64/35
f 37/67/37 36/66/36 21/65/21
f 21/65/21 38/68/38 37/67/37
f 31/69/31 39/70/39 40/71/40
f 40/71/40 41/72/41 31/69/31
f 41/72/41 42/73/42 31/69/31
f 42/73/42 30/74/30 31/69/31
f 30/74/30 42/73/42 43/75/43
f 43/75/43 38/68/38 30/74/30
f 21/65/21 30/74/30 38/68/38
f 39/70/39 31/69/31 44/76/44
f 45/77/45 44/78/44 46/79/46
f 47/80/47 46/81/46 48/82/48
f 49/83/49 46/84/46 44/85/44
f 44/85/44 50/86/50 51/87/51
f 51/87/51 52/88/52 44/85/44
f 44/85/44 52/88/52 49/83/49
f 48/89/48 46/84/46 53/90/53
f 54/91/54 55/92/55 48/89/48
f 56/93/56 54/91/54 48/89/48
f 48/89/48 57/94/57 56/93/56
f 53/90/53 57/94/57 48/89/48
f 48/95/48 55/96/55 58/97/58
f 59/98/59 60/99/60 61/21/61
f 61/100/61 62/101/62 59/102/59
f 61/100/61 63/103/63 62/101/62
f 64/104/64 62/101/62 63/103/63
f 63/103/63 65/105/65 64/104/64
f 58/97/58 66/106/66 48/95/48
f 48/95/48 66/106/66 67/107/67
f 67/107/67 65/105/65 48/95/48
f 68/108/68 48/95/48 65/105/65
f 69/109/69 68/108/68 65/105/65
f 63/103/63 69/109/69 65/105/65
f 47/80/47 48/82/48 68/110/68
f 70/111/70 63/112/63 61/113/61
f 70/111/70 69/114/69 63/112/63
f 70/111/70 47/80/47 69/114/69
f 47/80/47 68/110/68 69/114/69
f 70/115/70 61/116/61 71/117/71
f 72/118/72 70/115/70 71/117/71
f 71/117/71 73/119/73 72/118/72
f 73/119/73 74/120/74 72/118/72
f 75/121/75 76/122/76 77/123/77
f 77/123/77 78/124/78 75/121/75
f 79/125/79 78/124/78 80/126/80
f 78/124/78 79/125/79 75/121/75
f 80/126/80 81/127/81 79/125/79
f 81/127/81 80/126/80 82/128/82
f 81/127/81 82/128/82 83/129/83
f 73/119/73 81/127/81 83/129/83
f 83/129/83 74/120/74 73/119/73
f 61/130/61 60/131/60 84/132/84
f 84/132/84 85/133/85 61/130/61
f 85/133/85 71/134/71 61/130/61
f 71/134/71 85/133/85 86/135/86
f 86/135/86 73/136/73 71/134/71
f 86/135/86 87/137/87 73/136/73
f 87/137/87 81/138/81 73/136/73
f 81/138/81 87/137/87 88/139/88
f 88/139/88 79/140/79 81/138/81
f 88/139/88 89/141/89 79/140/79
f 89/142/89 75/143/75 79/144/79
f 75/143/75 89/142/89 90/145/90
f 90/145/90 76/146/76 75/143/75
f 34/62/34 33/61/33 91/147/91
f 91/147/91 92/148/92 34/62/34
f 91/147/91 93/149/93 92/148/92
f 91/147/91 94/150/94 93/149/93
f 94/150/94 95/151/95 93/149/93
f 94/150/94 96/152/96 95/151/95
f 96/152/96 94/150/94 97/153/97
f 97/153/97 98/154/98 96/152/96
f 97/153/97 99/155/99 98/154/98
f 97/153/97 100/156/100 99/155/99
f 100/156/100 101/157/101 99/155/99
f 101/158/101 102/159/102 103/160/103
f 99/161/99 101/158/101 103/160/103
f 103/160/103 104/162/104 99/161/99
f 98/163/98 99/161/99 104/162/104
f 96/164/96 98/165/98 104/166/104
f 96/164/96 104/166/104 105/167/105
f 95/168/95 96/164/96 105/167/105
f 105/167/105 50/169/50 95/168/95
f 93/170/93 95/168/95 50/169/50
f 92/171/92 93/170/93 50/169/50
f 50/86/50 44/85/44 92/172/92
f 34/173/34 92/174/92 44/76/44
f 101/157/101 100/156/100 106/175/106
f 107/176/107 106/175/106 2/177/2
f 106/175/106 107/176/107 101/157/101
f 108/178/108 102/179/102 101/180/101
f 101/180/101 107/181/107 108/178/108
f 107/181/107 109/182/109 108/178/108
f 107/181/107 110/183/110 109/182/109
f 110/183/110 111/184/111 109/182/109
f 112/185/112 109/182/109 111/184/111
f 111/184/111 113/186/113 112/185/112
f 114/187/114 113/188/113 111/189/111
f 114/187/114 111/189/111 110/190/110
f 115/191/115 114/187/114 110/190/110
f 115/191/115 110/190/110 107/17/107
f 115/192/115 107/193/107 116/194/116
f 1/195/1 117/196/117 118/197/118
f 119/198/119 1/195/1 118/197/118
f 107/193/107 1/195/1 120/199/120
f 1/195/1 119/198/119 120/199/120
f 116/194/116 107/193/107 120/199/120
f 117/200/117 1/201/1 121/202/121
f 122/203/122 117/200/117 121/202/121
f 123/204/123 122/203/122 121/202/121
f 121/202/121 124/205/124 123/204/123
f 124/205/124 125/206/125 123/204/123
f 124/205/124 126/207/126 125/206/125
f 127/208/127 125/206/125 126/207/126
f 127/208/127 128/209/128 129/210/129
f 130/211/130 128/209/128 127/208/127
f 130/211/130 127/208/127 126/207/126
f 128/209/128 131/212/131 129/210/129
f 132/213/132 129/210/129 131/212/131
f 131/212/131 133/214/133 132/213/132
f 133/214/133 134/215/134 132/213/132
f 134/215/134 135/216/135 132/213/132
f 136/217/136 135/218/135 134/219/134
f 136/217/136 134/219/134 133/220/133
f 136/217/136 133/220/133 131/221/131
f 131/221/131 137/222/137 136/217/136
f 137/222/137 131/221/131 128/223/128
f 1/1/1 3/3/3 138/224/138
f 121/225/121 1/226/1 138/227/138
f 138/227/138 124/228/124 121/225/121
f 130/229/130 138/227/138 137/222/137
f 128/223/128 130/229/130 137/222/137
f 124/228/124 138/227/138 126/230/126
f 130/229/130 126/230/126 138/227/138
f 139/231/139 39/232/39 44/233/44
f 140/234/140 7/7/7 9/9/9
f 2/2/2 1/1/1 107/235/107
f 15/236/15 8/17/8 14/16/14
f 17/31/17 7/30/7 140/237/140
f 16/34/16 14/33/14 7/238/7
f 16/29/16 17/31/17 19/35/19
f 22/43/22 5/42/5 4/239/4
f 44/76/44 31/69/31 34/173/34
f 139/240/139 44/78/44 45/77/45
f 45/241/45 46/81/46 47/80/47
f 141/242/141 46/84/46 49/83/49
f 53/90/53 46/84/46 141/242/141
l 142 129
l 25 144
l 142 127
l 145 128
l 130 142
l 143 24
l 130 145
l 143 144
