# Blender v2.69 (sub 0) OBJ File: ''
# www.blender.org
mtllib bullet.mtl
o Normalmapper.001_Cube.002
v 0.000000 -0.467078 0.340175
v -0.000001 -0.467078 -1.152520
v 0.340175 -0.340175 0.340175
v 0.000000 0.467078 0.340175
v 0.340175 0.340175 0.340175
v -0.000001 0.467078 -1.152520
v -0.475988 0.000000 0.340176
v -0.340175 0.340175 0.340175
v -0.475989 -0.000000 -1.152519
v -0.340176 -0.340175 -1.152519
v -0.000002 -0.420234 -1.319727
v 0.475987 -0.000000 -1.152521
v 0.340174 0.340175 -1.152520
v 0.475988 0.000000 0.340174
v -0.340175 -0.340175 0.340175
v -0.340176 0.340175 -1.152520
v -0.000002 0.420234 -1.319727
v -0.428252 -0.000000 -1.319727
v 0.340174 -0.340175 -1.152520
v 0.428248 -0.000000 -1.319728
v 0.306056 -0.306058 -1.319727
v 0.208506 -0.000000 -1.645367
v -0.306060 -0.306058 -1.319726
v -0.208509 -0.000000 -1.645367
v -0.306060 0.306058 -1.319728
v -0.000002 0.204605 -1.645367
v -0.000002 -0.204605 -1.645367
v 0.306056 0.306058 -1.319727
v 0.149013 -0.149014 -1.645367
v -0.000002 -0.000000 -1.803941
v -0.149016 -0.149014 -1.645367
v -0.149016 0.149014 -1.645367
v 0.149013 0.149014 -1.645367
vt 0.170101 0.000000
vt 0.094187 0.462267
vt 0.075915 0.010877
vt 0.800313 0.008287
vt 0.920973 0.008287
vt 0.800313 0.501618
vt 0.620877 0.710548
vt 0.499150 0.710548
vt 0.620877 0.214526
vt 0.213252 0.481820
vt 0.090275 0.519665
vt 0.410894 0.214526
vt 0.499150 0.215634
vt 0.410894 0.710548
vt 0.289167 0.019553
vt 0.709134 0.000000
vt 0.709134 0.493331
vt 0.805754 0.555349
vt 0.709134 0.711656
vt 0.709134 0.215634
vt 0.289167 0.524337
vt 0.265700 0.575510
vt 0.289167 0.214526
vt 0.289167 0.710548
vt 0.405011 0.159157
vt 0.920973 0.501617
vt 0.499150 0.214526
vt 0.614995 0.159157
vt 0.000000 0.473143
vt 0.295493 0.159157
vt 0.377934 0.051844
vt 0.197399 0.537257
vt 0.180262 0.673553
vt 0.683360 0.921793
vt 0.588683 0.896957
vt 0.663037 0.798313
vt 0.094850 0.646363
vt 0.005534 0.529450
vt 0.505476 0.159157
vt 0.587917 0.051844
vt 0.516678 0.815728
vt 0.513792 0.718973
vt 0.626574 0.711656
vt 0.324611 0.051844
vt 0.352241 0.000000
vt 0.147007 0.654929
vt 0.106841 0.720002
vt 0.709134 0.810405
vt 0.709134 0.725680
vt 0.053592 0.651128
vt 0.534595 0.051844
vt 0.562225 0.000000
vt 0.627979 0.758764
vt 0.499150 0.711656
vt 0.723719 0.547894
vt 0.914313 0.555350
vt 0.484416 0.160154
vt 0.709134 0.769963
vt 0.709134 0.649303
vt 0.799278 0.851764
vt 0.788161 0.558124
vt 0.909856 0.555350
vt 0.920973 0.848990
vt 1.000000 0.757811
vt 1.000000 0.637151
vn 0.349523 -0.936928 -0.000000
vn 0.349523 0.936928 -0.000001
vn -0.928718 0.370786 0.000001
vn -0.338070 -0.906229 -0.253886
vn 0.928718 0.370786 -0.000001
vn -0.349523 -0.936928 0.000001
vn -0.349523 0.936928 0.000000
vn -0.338071 0.906229 -0.253885
vn -0.928718 -0.370786 0.000001
vn -0.897698 -0.358402 -0.256292
vn 0.928718 -0.370786 -0.000001
vn 0.897698 -0.358401 -0.256296
vn 0.338071 0.906229 -0.253886
vn 0.897698 0.358401 -0.256296
vn -0.897699 0.358401 -0.256292
vn 0.338070 -0.906229 -0.253885
vn 0.786949 -0.314186 -0.531035
vn -0.786948 -0.314187 -0.531036
vn -0.297007 0.796153 -0.527188
vn -0.297008 -0.796153 -0.527188
vn 0.297006 -0.796153 -0.527188
vn -0.786949 0.314185 -0.531036
vn 0.786949 0.314185 -0.531035
vn 0.297007 0.796153 -0.527189
vn 0.588403 -0.234917 -0.773689
vn -0.588407 -0.234918 -0.773687
vn -0.222788 0.597188 -0.770540
vn -0.222786 -0.597188 -0.770540
vn 0.222782 -0.597189 -0.770541
vn -0.588406 0.234918 -0.773687
vn 0.588404 0.234917 -0.773689
vn 0.222782 0.597189 -0.770541
vn -0.338072 -0.906228 -0.253887
vn -0.338071 0.906228 -0.253886
vn -0.897698 -0.358402 -0.256294
vn 0.897697 -0.358401 -0.256296
vn 0.338071 0.906228 -0.253888
vn 0.897697 0.358402 -0.256297
vn -0.897698 0.358401 -0.256293
vn 0.338071 -0.906228 -0.253888
vn 0.786949 -0.314185 -0.531035
vn -0.786950 -0.314185 -0.531035
vn -0.297011 0.796149 -0.527191
vn -0.297012 -0.796150 -0.527190
vn 0.297009 -0.796151 -0.527190
vn 0.297009 0.796151 -0.527190
vn 0.000001 0.000000 1.000000
vn 0.000002 0.000000 1.000000
usemtl Material.002
s off
f 1/1/1 2/2/1 3/3/1
f 4/4/2 5/5/2 6/6/2
f 7/7/3 8/8/3 9/9/3
f 2/2/4 10/10/4 11/11/4
f 12/12/5 13/13/5 14/14/5
f 10/10/6 1/1/6 15/15/6
f 8/16/7 4/4/7 16/17/7
f 16/17/8 6/6/8 17/18/8
f 15/19/9 7/7/9 10/20/9
f 10/10/10 9/21/10 18/22/10
f 19/23/11 12/12/11 3/24/11
f 12/12/12 19/23/12 20/25/12
f 6/6/13 13/26/13 17/18/13
f 13/13/14 12/12/14 20/25/14
f 9/9/15 16/27/15 18/28/15
f 19/29/16 2/2/16 11/11/16
f 20/25/17 21/30/17 22/31/17
f 23/32/18 18/22/18 24/33/18
f 25/34/19 17/35/19 26/36/19
f 11/11/20 23/32/20 27/37/20
f 21/38/21 11/11/21 27/37/21
f 18/28/22 25/39/22 24/40/22
f 28/41/23 20/42/23 22/43/23
f 17/35/24 28/41/24 26/36/24
f 22/31/25 29/44/25 30/45/25
f 31/46/26 24/33/26 30/47/26
f 32/48/27 26/36/27 30/49/27
f 27/37/28 31/46/28 30/47/28
f 29/50/29 27/37/29 30/47/29
f 24/40/30 32/51/30 30/52/30
f 33/53/31 22/43/31 30/49/31
f 26/36/32 33/53/32 30/49/32
f 2/2/1 19/29/1 3/3/1
f 5/5/2 13/26/2 6/6/2
f 8/8/3 16/27/3 9/9/3
f 10/10/33 23/32/33 11/11/33
f 13/13/5 5/54/5 14/14/5
f 2/2/6 1/1/6 10/10/6
f 4/4/7 6/6/7 16/17/7
f 25/55/34 16/17/34 17/18/34
f 7/7/9 9/9/9 10/20/9
f 23/32/35 10/10/35 18/22/35
f 12/12/11 14/14/11 3/24/11
f 19/23/36 21/30/36 20/25/36
f 13/26/37 28/56/37 17/18/37
f 28/57/38 13/13/38 20/25/38
f 16/27/39 25/39/39 18/28/39
f 21/38/40 19/29/40 11/11/40
f 21/30/41 29/44/41 22/31/41
f 31/46/42 23/32/42 24/33/42
f 32/48/43 25/34/43 26/36/43
f 23/32/44 31/46/44 27/37/44
f 29/50/45 21/38/45 27/37/45
f 25/39/22 32/51/22 24/40/22
f 33/53/23 28/41/23 22/43/23
f 28/41/46 33/53/46 26/36/46
f 15/58/47 1/59/47 7/60/47
f 1/59/47 3/61/47 14/62/47
f 7/60/47 1/59/47 14/62/47
f 8/63/48 7/60/48 4/64/48
f 7/60/47 14/62/47 5/65/47
f 4/64/47 7/60/47 5/65/47
