# Blender v2.69 (sub 0) OBJ File: 'landscape_redux.blend'
# www.blender.org
mtllib canyon_water.mtl
o canyon.water_Plane.003
v -86.419632 98.860725 10.271147
v -149.635971 97.305290 7.179992
v -86.419632 98.860725 -24.885391
v -149.635971 97.305290 -22.950808
v -82.413078 84.844093 -20.354288
v -82.413078 84.844093 5.160809
v -84.726524 -2.999106 -28.595722
v -84.726524 -2.999106 13.402244
v -81.786377 45.462654 13.402244
v -81.786377 45.462654 -28.595722
v -52.023788 2.528273 8.572747
v -77.551056 2.528273 78.555992
v -45.664536 2.528273 -43.882263
v -119.376816 2.528273 -87.655861
v -101.188492 2.528273 62.959423
v -79.873001 95.386780 10.271147
v -79.873001 95.386780 -24.885391
v -78.073387 84.844093 -20.354288
v -78.073387 84.844093 5.160809
v -80.386833 -2.999106 -28.595722
v -80.386833 -2.999106 13.402244
v -77.446686 45.462654 13.402244
v -77.446686 45.462654 -28.595722
v -7.489749 2.528273 -86.432274
v -92.746185 2.528273 -145.251877
v 44.062866 1.512097 -128.907578
v 50.884373 1.512097 -177.107819
v 109.736519 -0.682288 -75.570480
v 116.558029 -0.682288 -150.763290
vt 0.517224 0.256101
vt 0.868611 0.238543
vt 0.517224 0.427240
vt 0.278681 0.692103
vt 0.061687 0.251022
vt 0.278681 0.000000
vt 0.953992 0.845964
vt 0.917185 0.825540
vt 0.909071 0.763954
vt 0.978611 0.570821
vt 0.953992 0.571330
vt 0.979976 0.320610
vt 0.955357 0.321119
vt 1.000000 0.238543
vt 0.278681 0.512891
vt 0.278681 0.238543
vt 0.517224 0.512891
vt 0.325492 0.767385
vt 0.470414 0.767385
vt 0.296465 0.827633
vt 0.933695 0.764443
vt 0.907951 0.512859
vt 0.517224 0.438228
vt 0.541873 0.438228
vt 0.517224 0.676771
vt 1.000000 0.844854
vt 0.975381 0.845363
vt 0.932575 0.513348
vt 0.953992 0.239032
vt 0.907951 0.238543
vt 0.868611 0.438228
vt 0.805919 0.191733
vt 0.887046 0.017784
vt 0.887046 0.217469
vt 0.805919 0.046810
vt 0.551839 0.238543
vt 0.551839 0.000000
vt 0.183898 0.859741
vt 0.000000 0.549654
vt 0.963199 0.258979
vt 0.517224 0.238543
vt 0.496150 0.827633
vt 0.541873 0.676771
vt 0.929368 0.238543
vt 0.907951 0.438228
vn -0.024598 0.999697 0.000000
vn 0.000000 1.000000 0.000000
vn -0.221123 -0.416705 -0.881738
vn 0.000000 0.204835 0.978796
vn 0.000000 -0.342535 0.939505
vn 0.998165 -0.060558 0.000000
vn 0.999873 0.015911 0.000000
vn 0.985742 0.168264 0.000000
vn 0.000000 0.204835 -0.978797
vn 0.000000 -1.000000 0.000000
vn 0.000000 0.000000 1.000000
vn 0.000000 0.000000 -1.000000
vn 0.468739 0.883337 0.000000
vn -0.961491 -0.274837 0.000000
vn -0.961492 -0.274834 0.000000
vn -0.999873 -0.015911 0.000000
vn -0.999873 -0.015912 0.000000
vn -0.998165 0.060558 0.000000
vn 0.008982 0.999875 -0.013019
vn 0.029955 0.999542 0.004239
vn 0.000000 -0.307594 -0.951518
vn 0.000000 0.204835 0.978797
vn -0.242168 -0.456365 0.856204
vn 0.999873 0.015912 0.000000
vn 0.985742 0.168265 0.000000
vn 0.468739 0.883336 0.000000
vn 0.007304 0.999973 0.001034
vn 0.032223 0.999476 0.002923
usemtl None
s off
f 2/1/1 1/2/1 4/3/1
f 15/4/2 13/5/2 14/6/2
f 3/7/3 17/8/3 18/9/3
f 9/10/4 22/11/4 6/12/4
f 6/12/5 19/13/5 1/14/5
f 22/15/6 21/16/6 23/17/6
f 19/18/7 22/15/7 18/19/7
f 16/20/8 19/18/8 18/19/8
f 5/21/9 18/9/9 23/22/9
f 7/23/10 20/24/10 8/25/10
f 8/26/11 21/27/11 22/11/11
f 10/28/12 23/22/12 7/29/12
f 1/2/13 16/30/13 3/31/13
f 5/32/14 1/33/14 3/34/14
f 6/35/15 1/33/15 5/32/15
f 5/32/16 10/36/16 6/35/16
f 6/35/17 10/36/17 9/37/17
f 9/37/18 10/36/18 8/6/18
f 10/36/18 7/16/18 8/6/18
f 14/6/2 13/5/2 24/5/2
f 25/6/19 24/5/19 26/5/19
f 27/6/20 26/5/20 28/5/20
f 1/2/1 3/31/1 4/3/1
f 12/38/2 11/39/2 15/4/2
f 11/39/2 13/5/2 15/4/2
f 5/21/21 3/7/21 18/9/21
f 22/11/22 19/13/22 6/12/22
f 19/13/23 16/40/23 1/14/23
f 21/16/6 20/41/6 23/17/6
f 22/15/24 23/17/24 18/19/24
f 17/42/25 16/20/25 18/19/25
f 10/28/9 5/21/9 23/22/9
f 20/24/10 21/43/10 8/25/10
f 9/10/11 8/26/11 22/11/11
f 23/22/12 20/44/12 7/29/12
f 16/30/26 17/45/26 3/31/26
f 25/6/2 14/6/2 24/5/2
f 27/6/27 25/6/27 26/5/27
f 29/6/28 27/6/28 28/5/28
