# Blender v2.69 (sub 0) OBJ File: 'landscape_redux.blend'
# www.blender.org
mtllib canyon_walkway.mtl
o canyon.walkway_Plane.004
v -128.840714 58.499722 -162.654205
v 3.991516 59.246071 -162.745300
v -106.887299 12.515282 69.344200
v -104.515076 56.448353 -134.115417
v 3.991516 59.246799 -146.062073
v -118.867928 48.338104 -144.289963
v 3.991516 52.415508 -148.483658
v -91.818771 58.748928 -150.494232
v 3.991516 61.799805 -146.062073
v -91.818771 60.804279 -150.494232
v 88.339142 82.071510 -143.410324
v 89.463730 82.071518 -137.243347
v 89.463730 71.258530 -141.582642
v 89.463730 83.191368 -137.243347
v 102.002365 82.071518 -141.784271
v 102.002365 82.071518 -137.243347
v 3.822078 61.805744 -146.943436
v -91.988213 60.810219 -151.375595
v 89.294296 83.197304 -138.124710
v 88.339142 97.999451 -135.128403
v 102.002365 97.999458 -142.286850
v 88.339142 82.071510 -156.786194
v 102.002365 82.071518 -155.160141
v 88.339142 97.999451 -156.786194
v 102.002365 97.999458 -155.160141
v -129.425522 12.549198 78.009659
v -129.133133 56.448189 -140.471420
vt 0.426499 0.003904
vt 0.466462 0.037854
vt 0.443437 0.055697
vt 0.144411 0.771907
vt 0.126523 0.749041
vt 0.144411 0.730949
vt 0.971044 0.296806
vt 0.988417 0.173916
vt 0.974491 0.296422
vt 0.088272 0.809183
vt 0.088272 0.853113
vt 0.077032 0.823998
vt 0.989928 0.429465
vt 0.993649 0.589986
vt 0.972640 0.588746
vt 1.000000 0.467462
vt 0.972453 0.176351
vt 0.426140 0.189558
vt 0.446653 0.192948
vt 0.452038 0.309117
vt 0.460660 0.310712
vt 0.454291 0.328214
vt 0.986038 0.156633
vt 1.000000 0.760078
vt 0.269709 0.865330
vt 0.272763 0.986803
vt 0.271549 0.986481
vt 0.272763 0.731271
vt 0.268495 0.865008
vt 0.302615 0.730949
vt 0.305711 0.730982
vt 0.288066 0.864219
vt 0.291837 0.864336
vt 0.305711 0.987202
vt 0.303883 0.987327
vt 0.444017 0.189704
vt 0.987154 0.429774
vt 0.961060 0.298284
vt 0.989928 0.173748
vt 0.459124 0.316088
vt 0.460641 0.328231
vt 0.271549 0.730949
vt 0.963460 0.298284
vt 0.980580 0.461563
vt 0.457611 0.003433
vt 0.752929 0.032165
vt 0.246211 0.730949
vt 0.268495 0.742415
vt 0.246211 0.760960
vt 0.121635 0.847612
vt 0.092296 0.854158
vt 0.108256 0.831320
vt 0.224118 0.749170
vt 0.246211 0.749552
vt 0.435586 0.328164
vt 0.433333 0.309067
vt 0.268495 0.760950
vt 0.090817 0.835211
vt 0.224118 0.731266
vt 0.765079 0.000709
vn -0.041858 0.993369 0.107082
vn 0.388199 -0.905039 0.173797
vn -0.102634 0.000000 0.994719
vn -0.671133 0.431177 0.603048
vn -0.046210 0.000000 0.998932
vn 0.227574 -0.878228 -0.420624
vn 0.003702 -0.372431 0.928052
vn -0.261207 0.965283 -0.000042
vn -0.000000 1.000000 0.000000
vn 0.000000 -0.372434 0.928059
vn 0.015185 -0.901790 -0.431908
vn -0.247683 0.967328 0.054123
vn -0.010798 0.999903 0.008810
vn 0.044578 -0.389655 -0.919881
vn 0.047085 -0.322500 -0.945398
vn 0.174096 -0.310350 -0.934544
vn 0.234806 -0.577054 -0.782225
vn -0.005194 0.999986 -0.000043
vn -0.005621 0.999979 -0.003381
vn -0.041829 -0.333821 0.941708
vn -0.102629 0.000000 0.994720
vn -0.002442 -0.334112 0.942530
vn -0.262311 0.963797 0.047835
vn -0.247685 0.967326 0.054155
vn -0.010797 0.999903 0.008820
vn 0.013735 0.485309 0.874235
vn -0.023696 0.995500 0.091754
vn -0.054264 0.976162 0.210150
vn 1.000000 0.000000 0.000000
vn 0.000001 -1.000000 0.000000
vn -1.000000 0.000000 0.000000
vn -0.000001 1.000000 0.000000
vn 0.077023 0.977473 0.196505
usemtl Material.004
s off
f 1/1/1 4/2/1 8/3/1
f 8/4/2 4/5/2 6/6/2
f 5/7/3 12/8/3 9/9/3
f 4/10/4 1/11/4 6/12/4
f 5/7/5 9/9/5 10/13/5
f 7/14/6 2/15/6 13/16/6
f 5/7/7 13/17/7 12/8/7
f 2/18/8 5/19/8 11/20/8
f 11/20/9 12/21/9 15/22/9
f 16/23/10 12/8/10 13/17/10
f 7/14/11 6/24/11 2/15/11
f 9/25/12 14/26/12 19/27/12
f 10/28/13 9/25/13 17/29/13
f 8/30/14 18/31/14 5/32/14
f 18/31/15 17/33/15 5/32/15
f 19/34/16 5/32/16 17/33/16
f 19/34/17 12/35/17 5/32/17
f 2/18/18 8/3/18 5/36/18
f 1/1/19 8/3/19 2/18/19
f 5/7/20 8/37/20 7/38/20
f 12/8/21 14/39/21 9/9/21
f 8/37/5 5/7/5 10/13/5
f 7/38/22 13/17/22 5/7/22
f 11/20/23 5/19/23 12/40/23
f 15/22/9 12/21/9 16/41/9
f 17/29/24 9/25/24 19/27/24
f 18/42/25 10/28/25 17/29/25
f 7/43/26 8/37/26 6/44/26
f 27/45/27 4/2/27 1/1/27
f 3/46/28 4/2/28 27/45/28
f 20/47/29 11/48/29 24/49/29
f 20/50/30 24/51/30 21/52/30
f 21/53/31 23/47/31 15/54/31
f 23/55/32 11/20/32 15/22/32
f 22/56/32 11/20/32 23/55/32
f 11/48/29 22/57/29 24/49/29
f 21/52/30 24/51/30 25/58/30
f 25/59/31 23/47/31 21/53/31
f 26/60/33 3/46/33 27/45/33
