# Blender v2.69 (sub 0) OBJ File: ''
# www.blender.org
mtllib golem.mtl
o Cube
v -0.999999 -1.000000 1.000001
v -1.000001 -1.000000 -0.999999
v 0.999999 -1.000000 -1.000001
v 1.000001 -1.000000 0.999999
v -0.999999 1.000000 1.000001
v -1.000001 1.000000 -0.999999
v 0.999999 1.000000 -1.000001
v 1.000001 1.000000 0.999999
v -0.481181 1.406428 0.481181
v -0.481181 1.406428 -0.481181
v 0.481181 1.406428 -0.481182
v 0.481182 1.406428 0.481180
v -0.483451 -1.617456 0.483452
v -0.483452 -1.617456 -0.483451
v 0.483451 -1.617456 -0.483452
v 0.483452 -1.617456 0.483451
v 1.544959 -0.640321 -0.640323
v 1.544960 -0.640321 0.640319
v 1.544959 0.640321 -0.640323
v 1.544960 0.640321 0.640319
v -0.541816 -0.541814 -1.451589
v 0.541812 -0.541814 -1.451591
v -0.541815 0.541814 -1.451590
v 0.541812 0.541814 -1.451591
v -1.428115 -0.568657 0.568659
v -1.428117 -0.568657 -0.568655
v -1.428115 0.568657 0.568658
v -1.428116 0.568657 -0.568655
v -0.457539 -0.457541 1.285587
v 0.457542 -0.457541 1.285586
v -0.457540 0.457541 1.285587
v 0.457543 0.457541 1.285586
v -0.216743 1.810114 -0.801548
v -0.216741 1.810114 0.528657
v -1.546946 1.810114 0.528659
v -1.546948 1.810114 -0.801546
v -0.216743 3.140320 -0.801548
v -0.216741 3.140320 0.528657
v -1.546946 3.140320 0.528659
v -1.546948 3.140320 -0.801546
v -0.008013 2.475217 -1.010278
v -0.008012 3.349050 -0.136446
v -0.008011 2.475217 0.737387
v -0.008012 1.601385 -0.136446
v -0.881844 3.349050 0.737388
v -1.755676 2.475217 0.737389
v -0.881844 1.601385 0.737388
v -1.755677 3.349050 -0.136444
v -1.755678 2.475217 -1.010276
v -1.755677 1.601385 -0.136444
v -0.881846 3.349050 -1.010277
v -0.881846 1.601385 -1.010277
v -0.008012 2.475217 -0.136446
v -0.881844 2.475217 0.737388
v -1.755677 2.475217 -0.136444
v -0.881846 2.475217 -1.010277
v -0.881845 1.601385 -0.136445
v -0.881845 3.349050 -0.136445
v 0.997284 4.369943 -0.851606
v 0.997285 4.369943 0.487788
v -0.342109 4.369943 0.487790
v -0.342111 4.369943 -0.851605
v 0.997284 5.709337 -0.851606
v 0.997285 5.709337 0.487788
v -0.342109 5.709337 0.487790
v -0.342111 5.709337 -0.851605
v 1.560667 5.039640 -1.414992
v 1.560669 6.272722 -0.181910
v 1.560670 5.039640 1.051172
v 1.560669 3.806558 -0.181910
v 0.327589 6.272722 1.051174
v -0.905493 5.039640 1.051175
v 0.327589 3.806558 1.051174
v -0.905495 6.272722 -0.181907
v -0.905496 5.039640 -1.414989
v -0.905495 3.806558 -0.181907
v 0.327586 6.272722 -1.414990
v 0.327586 3.806558 -1.414990
v 1.560669 5.039640 -0.181910
v 0.327589 5.039640 1.051174
v -0.905495 5.039640 -0.181907
v 0.327586 5.039640 -1.414990
v 0.327587 3.806558 -0.181908
v 0.327587 6.272722 -0.181908
v 1.690274 5.709337 0.487787
v 1.691082 5.039640 1.051172
v 1.691081 5.039640 -0.181910
vt 0.122004 0.498371
vt 0.122004 0.696772
vt 0.060758 0.549613
vt 0.955035 0.253848
vt 0.955035 0.452248
vt 0.914712 0.305315
vt 0.243199 0.259653
vt 0.044798 0.259653
vt 0.087587 0.216863
vt 0.687408 0.252461
vt 0.687408 0.054060
vt 0.751206 0.099513
vt 0.961373 0.003272
vt 0.961373 0.149844
vt 0.907313 0.147532
vt 0.423141 0.498371
vt 0.423141 0.299970
vt 0.480338 0.353783
vt 0.357946 0.351437
vt 0.357946 0.446904
vt 0.287419 0.446904
vt 0.622375 0.200994
vt 0.191732 0.299970
vt 0.287418 0.447129
vt 0.220733 0.447129
vt 0.220733 0.351212
vt 0.141081 0.498371
vt 0.141081 0.299970
vt 0.431944 0.198401
vt 0.431944 0.000000
vt 0.506006 0.051242
vt 0.243199 0.061252
vt 0.044798 0.061252
vt 0.096040 0.000000
vt 0.353298 0.663786
vt 0.480338 0.663786
vt 0.353298 0.790826
vt 0.243199 0.198401
vt 0.408995 0.252461
vt 0.054060 0.636308
vt 0.054060 0.778913
vt 0.000000 0.637147
vt 0.054060 0.498371
vt 0.077266 0.452919
vt 0.000000 0.452919
vt 0.000000 0.345423
vt 0.931782 0.660550
vt 0.931782 0.858951
vt 0.886984 0.813493
vt 0.000000 0.106704
vt 0.200409 0.104041
vt 0.200409 0.216863
vt 0.285661 0.053812
vt 0.372020 0.053812
vt 0.372020 0.144589
vt 0.285661 0.144589
vt 0.243199 0.000000
vt 0.204711 0.581080
vt 0.287418 0.607035
vt 0.247908 0.663785
vt 0.833672 0.165776
vt 0.833672 0.252461
vt 0.764523 0.231755
vt 0.397631 0.581078
vt 0.314923 0.555122
vt 0.354435 0.498371
vt 0.667548 0.573866
vt 0.667548 0.487181
vt 0.729367 0.507887
vt 0.232332 0.936921
vt 0.287418 0.961367
vt 0.233894 1.009798
vt 0.818083 0.386276
vt 0.754043 0.386276
vt 0.755385 0.320297
vt 0.122004 0.555125
vt 0.122005 0.624274
vt 0.161516 0.498371
vt 0.230666 0.498373
vt 0.287418 0.537882
vt 0.833672 0.079092
vt 0.764523 0.099798
vt 0.876737 0.609503
vt 0.899776 0.542403
vt 0.962467 0.595980
vt 0.962467 0.509189
vt 0.480338 0.607034
vt 0.480338 0.537883
vt 0.440826 0.663786
vt 0.371674 0.663786
vt 0.314923 0.624273
vt 0.667548 0.660550
vt 0.729367 0.639844
vt 0.537289 0.674391
vt 0.537289 0.746574
vt 0.480338 0.721301
vt 0.483765 0.795005
vt 0.729854 0.573866
vt 0.790121 0.573866
vt 0.790121 0.487181
vt 0.955035 0.378138
vt 1.000000 0.375076
vt 1.000000 0.452248
vt 0.353298 0.712246
vt 0.294754 0.738201
vt 0.299814 0.663786
vt 0.480338 0.899978
vt 0.480338 0.965216
vt 0.398135 0.937703
vt 0.818083 0.472960
vt 0.755385 0.452254
vt 0.573948 0.393580
vt 0.652698 0.299979
vt 0.667548 0.385511
vt 0.622375 0.130139
vt 0.622375 0.252461
vt 0.541951 0.196573
vt 0.573943 0.580786
vt 0.480338 0.502041
vt 0.565872 0.487181
vt 0.383281 0.825528
vt 0.480338 0.790826
vt 0.987670 0.660550
vt 0.987670 0.782872
vt 0.931782 0.726984
vt 0.942879 0.858951
vt 0.942879 0.981273
vt 0.886984 0.925385
vt 0.495197 0.487180
vt 0.582008 0.487181
vt 0.480338 0.401641
vt 0.480347 0.314829
vt 0.565878 0.299970
vt 0.622375 0.007817
vt 0.541951 0.063705
vt 0.914712 0.253848
vt 0.914712 0.350638
vt 0.834839 0.266009
vt 0.818083 0.345045
vt 0.667548 0.659531
vt 0.667548 0.572716
vt 0.582013 0.674391
vt 0.495197 0.674391
vt 0.480338 0.588856
vt 0.287418 0.889184
vt 0.184638 0.822859
vt 0.287418 0.786110
vt 0.231530 0.730222
vt 0.165096 0.786110
vt 0.667548 0.796713
vt 0.611660 0.740817
vt 0.667548 0.674391
vt 0.789870 0.782872
vt 0.667548 0.782872
vt 0.733982 0.726984
vt 0.818083 0.406526
vt 0.904442 0.350638
vt 0.904442 0.472960
vt 0.570594 0.919035
vt 0.496954 0.863147
vt 0.570594 0.796713
vt 0.545225 0.796713
vt 0.770331 0.782872
vt 0.770331 0.885953
vt 0.667548 0.819633
vt 0.789870 0.804701
vt 0.886984 0.769813
vt 0.886984 0.879075
vt 0.914712 0.400781
vt 0.000000 0.214200
vt 0.751206 0.207009
vt 0.907313 0.053679
vt 0.480338 0.444559
vt 0.287418 0.351438
vt 0.622375 0.105527
vt 0.096265 0.299970
vt 0.287418 0.351212
vt 0.506006 0.147159
vt 0.191957 0.000000
vt 0.060757 0.645530
vt 0.288138 0.252461
vt 0.000000 0.548824
vt 0.077266 0.345423
vt 0.886984 0.705997
vt 0.087587 0.104041
vt 0.178756 0.663787
vt 0.751206 0.165776
vt 0.423587 0.498371
vt 0.667548 0.960064
vt 0.712512 0.885953
vt 0.712512 0.963126
vt 0.818083 0.299591
vt 0.570594 1.005720
vt 0.510831 0.985013
vt 0.994455 0.252461
vt 0.936260 0.227686
vt 0.994455 0.163439
vt 0.667548 0.905668
vt 0.667548 0.969808
vt 0.585504 0.933653
vt 0.383281 0.913148
vt 0.383281 0.977288
vt 0.301238 0.949303
vt 0.790121 0.660550
vt 0.751206 0.041367
vt 0.833408 0.013854
vt 0.833408 0.079092
vt 0.353298 0.784418
vt 0.667548 0.472330
vt 0.506006 0.130139
vt 0.652688 0.487181
vt 0.667548 0.386465
vt 0.754043 0.299970
vt 0.746581 0.386471
vt 0.907313 0.027522
vt 0.907313 0.149844
vt 0.833672 0.083410
vt 0.789870 0.734925
vt 0.886984 0.660550
vt 0.219395 0.983168
vt 0.163587 0.889184
vt 0.232332 0.983179
vt 0.146820 0.819094
vt 0.060757 0.763206
vt 0.146820 0.696772
vt 0.936260 0.149844
vt 0.936260 0.252461
vt 0.833672 0.185841
vt 0.789870 0.660550
vt 0.146820 0.832031
vt 0.146820 0.934885
vt 0.044131 0.898497
vt 0.296936 0.846714
vt 0.383281 0.790826
vt 0.570594 0.831084
vt 0.754043 0.472960
vt 0.714450 0.941841
vt 0.770331 1.008276
vt 0.876737 0.487181
vt 0.790121 0.553615
vt 0.287418 0.663788
vt 0.942879 0.914839
vt 0.998767 0.858951
vt 0.998767 0.981273
vt 0.000000 0.728461
vt 0.883475 0.879075
vt 0.883475 0.965891
vt 0.789870 0.887146
vt 0.328242 0.265398
vt 0.243199 0.265398
vt 0.328242 0.252461
vt 0.232332 0.889242
vt 0.243199 0.252461
vt 0.060758 0.831951
vn 0.766997 -0.641650 -0.000001
vn 0.616681 0.787213 -0.000001
vn -0.709757 0.704447 0.000000
vn -0.000001 0.701962 -0.712215
vn 0.550848 0.834605 -0.000001
vn 0.000001 0.465851 0.884863
vn 0.000000 1.000000 -0.000000
vn -0.000000 0.787213 -0.616681
vn 0.000001 0.787213 0.616681
vn -0.616681 0.787213 0.000000
vn 0.000000 -1.000000 0.000000
vn -0.000001 -0.641650 -0.766997
vn 0.000001 -0.641650 0.766997
vn -0.766997 -0.641650 0.000001
vn 1.000000 0.000000 -0.000001
vn 0.550849 0.000000 0.834605
vn 0.550847 -0.000000 -0.834606
vn 0.550848 -0.834605 -0.000001
vn -0.000001 -0.000000 -1.000000
vn 0.701961 -0.000000 -0.712216
vn -0.701962 0.000000 -0.712214
vn -0.000001 -0.701962 -0.712215
vn -1.000000 -0.000001 0.000001
vn -0.709758 0.000000 -0.704446
vn -0.709756 0.000000 0.704448
vn -0.709757 -0.704447 0.000001
vn 0.000001 0.000000 1.000000
vn 0.465852 0.000000 0.884863
vn -0.465851 0.000000 0.884863
vn 0.000001 -0.465851 0.884863
vn 0.954118 -0.299432 -0.000001
vn 0.000001 -0.299432 0.954118
vn -0.954118 -0.299432 0.000001
vn -0.000001 -0.299432 -0.954118
vn -0.299431 -0.954118 0.000000
vn 0.299432 0.954118 0.000000
vn 0.954117 0.000000 -0.299433
vn 0.954118 0.000000 0.299431
vn 0.000001 -0.299431 0.954118
vn 0.299433 0.000000 0.954117
vn -0.299431 0.000000 0.954118
vn -0.954117 0.000000 0.299433
vn -0.954118 0.000000 -0.299430
vn -0.299433 0.000000 -0.954117
vn 0.299431 0.000000 -0.954118
vn -0.000000 -0.954118 -0.299432
vn 0.000000 -0.954118 0.299431
vn 0.299432 0.954118 -0.000001
vn -0.000000 0.954118 -0.299431
vn 0.000000 0.954118 0.299431
vn 0.765233 -0.643754 -0.000001
vn 0.000001 -0.643753 0.765233
vn -0.765233 -0.643754 0.000001
vn -0.000001 -0.643754 -0.765233
vn -0.643754 -0.765233 0.000001
vn 0.643754 0.765233 -0.000002
vn 0.765232 0.000000 -0.643755
vn 0.765234 0.000000 0.643753
vn 0.000001 -0.643754 0.765233
vn 0.643755 0.000000 0.765232
vn -0.643753 0.000000 0.765233
vn -0.765233 -0.643754 0.000000
vn -0.765232 0.000000 0.643755
vn -0.765233 0.000000 -0.643753
vn -0.000001 -0.643753 -0.765233
vn -0.643755 0.000000 -0.765232
vn 0.643753 0.000000 -0.765233
vn -0.000001 -0.765233 -0.643754
vn 0.000001 -0.765233 0.643753
vn 0.643754 0.765233 -0.000001
vn -0.000001 0.765233 -0.643754
vn 0.000001 0.765233 0.643753
vn 0.616681 0.787213 -0.000000
vn -0.701963 -0.000000 -0.712214
vn -0.709757 0.704447 0.000001
vn 0.550849 0.834605 -0.000001
vn -0.616681 0.787213 0.000001
vn -0.000001 -0.641651 -0.766997
vn -0.766997 -0.641651 0.000001
vn 0.766997 -0.641651 -0.000001
vn 0.550848 -0.834606 -0.000001
vn 0.701961 0.000000 -0.712215
vn -1.000000 0.000001 0.000001
vn 0.465853 0.000000 0.884862
vn -0.465850 0.000000 0.884864
vn -0.954118 0.000000 -0.299431
vn 0.000000 -0.954118 0.299432
vn 0.000000 0.954118 0.299432
vn 0.954118 0.299432 -0.000001
vn 0.000001 0.299432 0.954118
vn -0.954118 0.299432 0.000001
vn -0.000001 0.299432 -0.954118
vn -0.000000 -0.954118 -0.299431
vn 0.299431 -0.954118 -0.000000
vn -0.000000 0.954118 -0.299432
vn -0.299432 0.954118 0.000000
vn -0.299432 0.954118 0.000001
vn 0.765233 0.000000 0.643753
vn 0.000001 -0.765233 0.643754
vn 0.000001 0.765233 0.643754
vn 0.765233 0.643754 -0.000001
vn -0.000001 0.707108 -0.707105
vn 0.000001 0.643754 0.765233
vn 0.000001 0.643754 0.765232
vn -0.765233 0.643754 0.000002
vn -0.765232 0.643754 0.000001
vn -0.000001 0.643754 -0.765232
vn -0.000001 0.643754 -0.765233
vn -0.000001 -0.765233 -0.643753
vn 0.643754 -0.765233 -0.000000
vn -0.643754 0.765233 0.000001
vn 0.999999 0.001205 -0.000001
vn 0.000000 0.643752 0.765234
vn -0.000001 0.707107 -0.707106
usemtl Material
s off
f 3/1/1 4/2/1 15/3/1
f 8/4/2 7/5/2 12/6/2
f 5/7/3 6/8/3 28/9/3
f 6/10/4 7/11/4 24/12/4
f 7/13/5 8/14/5 20/15/5
f 8/16/6 5/17/6 31/18/6
f 9/19/7 12/20/7 11/21/7
f 7/11/8 6/10/8 10/22/8
f 5/17/9 8/16/9 9/19/9
f 6/8/10 5/7/10 9/23/10
f 13/24/11 14/25/11 15/26/11
f 2/27/12 3/28/12 15/26/12
f 4/29/13 1/30/13 13/31/13
f 1/32/14 2/33/14 14/34/14
f 17/35/15 19/36/15 18/37/15
f 8/38/16 4/29/16 18/39/16
f 3/40/17 7/41/17 17/42/17
f 4/43/18 3/40/18 17/42/18
f 21/44/19 23/45/19 24/46/19
f 7/47/20 3/48/20 22/49/20
f 2/33/21 6/8/21 21/50/21
f 3/28/22 2/27/22 21/44/22
f 25/51/23 27/52/23 28/9/23
f 6/8/24 2/33/24 28/9/24
f 1/32/25 5/7/25 25/51/25
f 2/33/26 1/32/26 25/51/26
f 31/53/27 29/54/27 30/55/27
f 4/29/28 8/38/28 32/56/28
f 5/57/29 1/30/29 29/54/29
f 1/30/30 4/29/30 30/55/30
f 53/58/31 43/59/31 34/60/31
f 54/61/32 46/62/32 35/63/32
f 55/64/33 49/65/33 36/66/33
f 56/67/34 41/68/34 33/69/34
f 57/70/35 47/71/35 35/72/35
f 58/73/36 45/74/36 38/75/36
f 41/76/31 53/58/31 33/77/31
f 37/78/37 42/79/37 53/58/37
f 42/79/38 38/80/38 53/58/38
f 43/81/39 54/61/39 34/82/39
f 38/83/40 45/84/40 54/85/40
f 45/84/41 39/86/41 54/85/41
f 46/87/33 55/64/33 35/88/33
f 39/89/42 48/90/42 55/64/42
f 48/90/43 40/91/43 55/64/43
f 49/92/34 56/67/34 36/93/34
f 40/94/44 51/95/44 56/96/44
f 51/95/45 37/97/45 56/96/45
f 52/98/35 57/99/35 36/93/35
f 33/69/46 44/100/46 57/99/46
f 44/101/47 34/102/47 57/103/47
f 51/104/48 58/105/48 37/106/48
f 40/107/49 48/108/49 58/109/49
f 48/110/50 39/111/50 58/73/50
f 79/112/51 69/113/51 60/114/51
f 80/115/52 72/116/52 61/117/52
f 81/118/53 75/119/53 62/120/53
f 82/107/54 67/121/54 59/122/54
f 83/123/55 73/124/55 61/125/55
f 84/126/56 71/127/56 64/128/56
f 67/129/51 79/112/51 59/130/51
f 63/131/57 68/132/57 79/112/57
f 68/132/58 64/133/58 79/112/58
f 69/134/59 80/115/59 60/135/59
f 64/136/60 71/137/60 80/138/60
f 71/137/61 65/139/61 80/138/61
f 72/140/62 81/118/62 61/141/62
f 65/142/63 74/143/63 81/118/63
f 74/143/64 66/144/64 81/118/64
f 75/145/65 82/146/65 62/147/65
f 66/148/66 77/147/66 82/149/66
f 77/150/67 63/151/67 82/152/67
f 78/153/55 83/154/55 62/155/55
f 59/156/68 70/157/68 83/158/68
f 70/159/69 60/160/69 83/161/69
f 77/150/70 84/162/70 63/151/70
f 66/163/71 74/164/71 84/165/71
f 74/166/72 65/167/72 84/168/72
f 7/5/73 11/169/73 12/6/73
f 6/8/74 23/170/74 21/50/74
f 27/52/75 5/7/75 28/9/75
f 23/171/4 6/10/4 24/12/4
f 19/172/76 7/13/76 20/15/76
f 32/173/6 8/16/6 31/18/6
f 10/174/7 9/19/7 11/21/7
f 11/175/8 7/11/8 10/22/8
f 10/176/77 6/8/77 9/23/77
f 16/177/11 13/24/11 15/26/11
f 14/25/78 2/27/78 15/26/78
f 16/178/13 4/29/13 13/31/13
f 13/179/79 1/32/79 14/34/79
f 4/2/80 16/180/80 15/3/80
f 20/181/16 8/38/16 18/39/16
f 19/36/15 20/122/15 18/37/15
f 18/182/81 4/43/81 17/42/81
f 22/183/19 21/44/19 24/46/19
f 24/184/82 7/47/82 22/49/82
f 5/7/25 27/52/25 25/51/25
f 22/183/22 3/28/22 21/44/22
f 26/185/83 25/51/83 28/9/83
f 8/16/9 12/20/9 9/19/9
f 2/33/24 26/185/24 28/9/24
f 26/185/26 2/33/26 25/51/26
f 32/56/27 31/53/27 30/55/27
f 30/55/84 4/29/84 32/56/84
f 31/53/85 5/57/85 29/54/85
f 29/54/30 1/30/30 30/55/30
f 44/186/38 53/58/38 34/60/38
f 47/187/41 54/61/41 35/63/41
f 50/188/86 55/64/86 36/66/86
f 52/98/45 56/67/45 33/69/45
f 50/189/87 57/190/87 35/191/87
f 42/192/88 58/73/88 38/75/88
f 53/58/37 44/186/37 33/77/37
f 41/76/89 37/78/89 53/58/89
f 38/80/89 43/59/89 53/58/89
f 54/61/40 47/187/40 34/82/40
f 43/193/90 38/194/90 54/159/90
f 39/195/90 46/196/90 54/197/90
f 55/64/42 50/188/42 35/88/42
f 46/87/91 39/89/91 55/64/91
f 40/91/91 49/65/91 55/64/91
f 56/67/44 52/98/44 36/93/44
f 49/198/92 40/199/92 56/200/92
f 37/201/92 41/202/92 56/203/92
f 57/99/93 50/204/93 36/93/93
f 52/98/94 33/69/94 57/99/94
f 34/145/94 47/71/94 57/70/94
f 58/205/95 42/206/95 37/207/95
f 51/104/96 40/208/96 58/105/96
f 39/111/97 45/74/97 58/73/97
f 70/209/98 79/112/98 60/114/98
f 73/210/61 80/115/61 61/117/61
f 76/211/64 81/118/64 62/120/64
f 78/212/67 82/213/67 59/214/67
f 76/215/99 83/216/99 61/217/99
f 68/218/100 84/219/100 64/167/100
f 79/112/57 70/209/57 59/130/57
f 67/129/101 63/131/101 79/112/101
f 79/220/102 64/221/102 87/222/102
f 80/115/60 73/210/60 60/135/60
f 69/223/103 64/224/103 80/225/103
f 65/226/104 72/227/104 80/228/104
f 81/118/63 76/211/63 61/141/63
f 72/140/105 65/142/105 81/118/105
f 66/144/106 75/119/106 81/118/106
f 82/229/66 78/153/66 62/155/66
f 75/230/107 66/231/107 82/232/107
f 63/233/108 67/234/108 82/201/108
f 83/198/109 76/235/109 62/150/109
f 78/212/110 59/214/110 83/236/110
f 60/237/110 73/164/110 83/238/110
f 84/239/71 68/83/71 63/240/71
f 77/147/111 66/148/111 84/241/111
f 65/242/111 71/243/111 84/244/111
f 7/41/17 19/245/17 17/42/17
f 85/246/112 86/247/112 87/248/112
f 69/249/11 79/250/11 86/251/11
f 64/224/113 69/223/113 86/230/113
f 64/221/114 85/252/114 87/222/114
f 79/250/11 87/253/11 86/251/11
f 85/254/104 64/224/104 86/230/104
