# Blender v2.69 (sub 0) OBJ File: ''
# www.blender.org
o Plane_Plane.002
v 15.496143 5.013149 7.457883
v 15.565382 5.013149 9.737519
v 8.584667 5.013148 10.883169
v 8.977069 5.013148 12.904152
v -1.554245 5.013151 -5.163448
v 1.546304 5.104032 0.428350
v -1.720190 5.013151 -1.689005
v 18.207590 5.013151 -6.163448
v 7.182582 5.013149 6.490737
v 5.371256 5.013149 5.161346
v 0.691509 5.969457 5.189165
v 2.842986 5.541260 3.080045
v -2.051493 5.579208 1.719048
v -1.813719 7.039069 5.337308
v -1.809551 6.680614 3.786684
v 0.977267 5.540880 3.071484
v -3.430996 7.060191 5.971930
v -2.500691 7.052843 4.071892
v -4.117970 7.102326 4.503256
v -6.595901 6.949960 4.638849
v -5.129755 6.877252 3.838757
v -7.196531 7.647945 4.425891
v -6.417681 6.812370 3.754664
v 15.125309 5.013153 -16.772787
v 17.830521 5.013153 -16.061417
v 3.286031 5.126469 1.436317
v 1.530680 5.013153 -17.201435
v 3.036961 5.013153 -15.822931
v -2.709786 5.013153 -16.445305
v 7.339691 5.013153 -15.488782
v 10.925757 5.013153 -16.923302
v -3.071461 5.013152 -9.195790
v -7.334232 6.943720 6.457023
v -5.254931 6.793980 2.954571
v 18.257830 5.013149 7.594687
v 18.234045 5.013149 9.557585
v 16.922369 5.013149 7.526285
v 18.938068 5.013148 13.462357
v 17.004282 5.013148 13.569656
v 17.451822 5.013147 18.353340
v 17.644348 5.013147 21.452702
v 17.004282 5.013147 21.560001
v 17.004282 5.013149 9.664887
v 12.372286 5.013147 18.165016
v 7.662578 5.013146 22.416718
v 5.244683 5.013147 16.729496
v 11.060801 5.013146 22.804951
v 7.771276 5.013146 24.984100
v -5.431595 5.013152 -11.332856
v -5.917898 4.409529 -11.332856
v -6.976413 5.013153 -17.426458
v -8.688072 4.409529 -11.332856
v -7.462715 4.409530 -17.426458
v -2.695756 4.409529 -7.751420
v -7.631378 4.409529 -8.326800
v -4.976891 4.409528 -5.451296
v -1.851629 4.409528 -4.061326
v -2.615618 5.013150 -0.018830
v -2.055973 4.409528 -1.850109
v -5.195815 4.409528 -2.556035
v -4.753045 4.660980 2.084488
v -7.069314 4.575223 -0.329354
v -9.203396 4.409527 0.677816
v -10.916584 4.409527 2.953449
v -6.976413 5.086700 -21.670216
v -5.769311 5.013153 -18.843586
v -7.619343 4.409531 -21.608341
v -10.398712 4.599409 -19.277719
v -10.085384 4.599409 -21.561138
v -10.398001 4.486450 -17.426458
v -6.559958 4.522458 -24.175594
v -6.432220 5.086701 -24.049385
v -5.769311 5.016046 -23.087341
v -8.415512 4.599409 -23.766857
v -10.546213 5.112668 -21.561138
v -8.876341 5.112668 -23.766857
v -9.754150 5.112668 -24.047665
v -10.546213 4.951520 -19.148766
v -11.424023 4.951520 -19.752720
v -10.546213 4.951520 -17.457308
v -10.185284 4.612061 -15.239377
v -10.333496 5.077131 -15.270226
v -13.452408 4.951520 -17.602551
v -9.013216 4.624770 -11.179051
v -10.510427 4.674454 -15.085571
v -8.611712 4.771322 -8.935908
v -13.008198 4.821318 -8.332192
v -13.840614 5.065688 -8.332192
v -11.342842 4.996779 -15.085571
v -13.637119 4.752270 -5.428364
v -14.500702 4.995653 -5.428364
v -11.083410 4.738655 2.835050
v -11.946993 4.995652 2.835050
v -9.847561 4.969764 -3.881674
v -8.827095 4.738655 -0.065900
v -11.083410 4.738654 5.143651
v -10.970409 4.486229 7.136170
v -11.946993 4.995651 4.481816
v -14.168474 4.995651 4.481816
v -15.566574 4.995652 2.835050
v -14.720070 4.995652 1.862779
v -14.720070 4.995652 -0.852668
v -16.213348 4.995653 -2.263973
v -17.469177 4.995653 -5.428364
v -23.449690 5.065689 -15.700456
v -18.406446 5.030670 -6.633076
v -22.887714 5.048179 -6.411075
v -8.975523 6.544415 -3.881674
v -8.108910 6.412094 -7.948069
v -5.573328 6.190679 -5.451296
v -6.634222 6.435454 -2.556035
v -7.875919 6.353042 -1.509596
v -7.747805 7.145129 -3.304811
v 1.984080 6.087617 2.356800
v 16.302162 7.005181 8.590434
v -22.902082 5.008604 -17.780407
v 16.039629 5.013146 23.026394
v 13.481700 5.013146 23.619537
v -7.364176 4.660979 7.147270
v -5.769311 5.016046 -24.684021
v -3.333042 8.345521 3.090175
v -2.972083 7.249801 1.719048
v -11.083410 4.738655 4.191483
v -17.094841 4.995653 -4.045000
v -22.243717 4.995652 -0.900173
v -22.500883 4.995653 -2.328783
v -20.752653 4.995652 -1.094324
v -22.243717 4.995652 6.291816
v -19.751635 4.995652 6.097665
v -23.518578 4.995652 2.695821
v -18.154089 4.995652 2.501670
v -19.898937 4.995653 0.228090
v -18.109211 4.995653 0.987153
v -3.107476 -0.139871 12.737273
v -7.087582 -0.139871 9.323937
v -0.826356 -0.139871 11.180730
v -6.782542 -0.139871 7.962937
v -2.353848 -0.139870 14.887522
v 0.604219 -0.139871 11.991625
v 0.238881 -0.139870 16.318449
v 5.071909 -0.139870 15.713178
v 3.568629 -0.139870 17.130011
v 6.930562 -0.139870 19.014427
v 4.192495 -0.139870 22.156368
v 6.019035 -0.139870 23.137186
v 6.474798 -0.139870 25.065989
v 7.917629 -0.139871 23.594360
v 5.727638 -0.139870 26.412861
v 7.917629 -0.139871 26.316902
v -4.538229 -0.831222 12.737273
v -7.999338 -1.396095 9.323937
v -7.694299 -1.396095 7.962937
v -3.784601 -0.831222 14.887522
v -1.191873 -0.831222 16.318449
v 2.472053 -0.831222 17.608437
v 2.761742 -0.803564 22.156368
v 4.588281 -0.803564 23.137186
v 5.044044 -0.803564 25.065989
v 4.296885 -0.803564 26.412861
v -25.748190 -0.705403 12.737273
v -25.741449 -0.766632 14.887522
v -25.718256 -0.766632 16.318449
v -25.685484 -0.766632 17.608437
v -25.682892 -0.803564 22.156368
v -25.666553 -0.803564 23.137186
v -25.662477 -0.803564 25.065989
v -25.669161 -0.803564 26.412861
v -11.461932 -1.448219 9.323937
v -11.156894 -1.448219 7.962937
v -12.079250 -0.219676 9.323937
v -11.774212 -0.219676 7.427840
v -12.160731 -1.219328 10.592094
v -12.743868 -0.219676 10.326058
v -6.268784 -0.944042 11.030605
v -13.084291 -0.124385 9.323937
v -13.748909 -0.167762 10.326058
v -12.716204 -0.002594 7.576813
v -13.704166 -0.124385 8.489954
v -15.321288 -0.167762 10.491743
v -16.373007 -0.124385 8.527966
v -16.258226 -0.146073 9.792619
v -18.039991 -0.124385 9.114119
v -19.252657 -0.146073 9.792619
v -19.011728 -0.135229 9.453369
v -16.258226 -0.869174 10.521427
v -19.252657 -0.869174 10.521427
v -13.748909 -0.846020 11.124472
v -15.321288 -0.846020 11.290156
v -22.176577 -0.146073 9.599229
v -22.176577 -0.869174 10.328037
v -22.994490 -0.146073 9.889127
v -22.994490 -0.869174 10.617935
v -21.736080 -0.146073 9.325654
v -22.513474 -0.146073 8.944992
v -24.108593 -0.146073 10.487080
v -23.276094 -0.146073 8.944992
v -25.730673 -0.146073 10.487080
v -23.888924 -0.146073 8.944992
v -25.404297 -0.146073 9.716036
v -24.108593 -0.941459 10.829667
v -25.730673 -0.941459 10.829667
v -15.143209 -0.798927 12.737273
vn 0.000000 -1.000000 0.000000
vn 0.026977 -0.999635 0.001288
vn -0.200240 -0.979732 -0.005355
vn -0.073975 -0.984920 0.156398
vn -0.373649 -0.903957 0.207963
vn -0.224399 -0.848942 0.478479
vn -0.014286 -0.999893 -0.003127
vn 0.071862 -0.972829 0.220090
vn -0.749749 -0.659949 -0.048426
vn -0.017959 -0.999631 -0.020356
vn -0.319062 -0.935766 0.150140
vn -0.000000 -1.000000 -0.000001
vn 0.001992 -0.999821 0.018818
vn -0.004892 -0.999987 0.001421
vn 0.062557 -0.997799 0.021980
vn -0.000710 -0.980148 0.198267
vn -0.077784 -0.986185 0.146248
vn -0.396873 -0.894523 0.205719
vn -0.343385 -0.928464 0.141566
vn -0.033984 -0.999341 -0.012775
vn 0.024803 -0.998881 -0.040259
vn 0.044425 -0.995179 0.087435
vn 0.008161 -0.999898 0.011726
vn 0.763976 -0.615491 -0.193679
vn 0.637774 -0.513817 -0.573792
vn 0.398384 -0.804810 -0.439968
vn 0.905799 -0.251736 -0.340817
vn 0.347721 -0.918878 0.186423
vn 0.729123 -0.663747 -0.166791
vn 0.925815 -0.375381 0.044218
vn 0.861929 -0.500733 0.079653
vn 0.750259 -0.524708 0.402235
vn -0.017226 -0.998498 0.052004
vn 0.045567 -0.998372 0.034304
vn -0.020339 -0.999643 -0.017324
vn 0.723699 -0.689583 -0.027105
vn 0.778676 -0.627332 -0.010872
vn -0.076966 -0.996978 -0.010561
vn -0.026148 -0.997803 -0.060873
vn 0.711272 -0.651104 0.264868
vn -0.079752 -0.996648 -0.018242
vn 0.940990 -0.261175 0.215235
vn -0.049674 -0.998057 -0.037608
vn -0.648302 -0.582076 -0.490808
vn -0.740241 -0.664624 -0.101575
vn 0.045810 -0.996729 -0.066582
vn -0.925314 -0.378358 -0.025275
vn -0.925049 -0.379165 -0.022780
vn -0.952785 -0.303644 -0.000000
vn -0.949155 -0.295236 0.109272
vn -0.002880 -0.998335 0.057617
vn -0.355537 -0.930508 0.088022
vn -0.484650 -0.857054 0.174848
vn -0.486363 -0.856867 0.170968
vn -0.002338 -0.997843 0.065611
vn -0.414860 -0.900103 0.133063
vn -0.280433 -0.955262 -0.093973
vn -0.450147 -0.201166 -0.870000
vn -0.139897 -0.361287 -0.921901
vn 0.071627 -0.996542 -0.042114
vn -0.015078 -0.999521 -0.027032
vn -0.280695 -0.956155 -0.083529
vn -0.270291 -0.959057 -0.084572
vn -0.284169 -0.954887 0.086246
vn 0.037544 -0.998124 0.048369
vn -0.057791 -0.997316 -0.044949
vn -0.710275 -0.436253 -0.552442
vn -0.678597 -0.527744 -0.510875
vn -0.285231 -0.958459 0.000000
vn -0.912719 -0.408587 0.000000
vn -0.891498 -0.453013 -0.003165
vn -0.285231 -0.958459 -0.000001
vn 0.015743 -0.999665 -0.020531
vn -0.003989 -0.999991 -0.001644
vn -0.006095 -0.999950 0.007949
vn -0.006897 -0.999694 0.023756
vn 0.852002 -0.471837 0.226855
vn 0.894995 -0.396875 0.203652
vn -0.696115 -0.201537 0.689062
vn -0.685369 -0.229503 0.691085
vn -0.813838 -0.577824 -0.061538
vn -0.902973 -0.302369 -0.305308
vn -0.572793 -0.406683 -0.711700
vn -0.629592 -0.607319 -0.484538
vn 0.845978 -0.468499 -0.254618
vn -0.150585 -0.873584 -0.462790
vn -0.172899 -0.598005 -0.782621
vn 0.635812 -0.687811 -0.350229
vn -0.282749 -0.869954 -0.404021
vn 0.531385 -0.788397 -0.309936
vn 0.393137 -0.912451 0.113475
vn -0.250571 -0.953064 0.169948
vn -0.483922 -0.868926 -0.103859
vn 0.594601 -0.762817 0.254086
vn -0.270533 -0.831360 0.485440
vn -0.567996 -0.821249 0.054144
vn 0.002938 -0.796233 -0.604982
vn -0.044052 -0.486245 -0.872712
vn 0.932114 -0.361058 -0.028311
vn -0.042001 -0.480911 0.875763
vn -0.948491 -0.314714 0.036329
vn 0.763977 -0.615490 -0.193679
vn -0.026196 -0.999643 -0.005268
vn -0.014040 -0.997949 0.062448
vn 0.064821 -0.997538 -0.026761
vn 0.048334 -0.998652 0.018935
vn -0.059228 -0.998244 -0.000681
vn -0.077993 -0.994060 -0.075910
vn -0.066092 -0.997810 0.002475
vn -0.105983 -0.994368 0.000000
vn -0.648302 -0.582078 -0.490806
vn -0.949155 -0.295235 0.109272
vn -0.180175 -0.983469 0.018066
vn -0.045715 -0.998943 0.004816
vn -0.358798 -0.926605 -0.112553
vn -0.270314 -0.959141 0.083537
vn 0.066284 -0.997555 -0.022128
vn 0.000000 -0.999578 -0.029054
vn -0.009384 -0.999955 0.001357
vn -0.006523 -0.999648 0.025718
vn 0.043942 -0.998777 0.022663
vn -0.209688 -0.673400 -0.708917
vn -0.560017 -0.698697 -0.445201
vn -0.865474 -0.476925 0.153286
vn -0.756798 -0.536018 0.374087
vn -0.801213 -0.441513 0.403887
vn 0.628749 -0.777448 -0.015794
vn 0.456360 -0.778309 -0.431243
vn 0.463489 -0.628698 0.624433
vn 0.489149 -0.485201 0.724785
vn 0.523611 -0.748582 0.406763
vn 0.706306 -0.118501 0.697918
vn 0.553304 -0.199687 0.808690
vn 0.843530 0.314940 0.435051
vn 0.921644 0.101184 0.374612
vn 0.802627 0.376477 0.462662
vn -0.445616 -0.589121 -0.674065
vn 0.039143 -0.986122 0.161343
vn 0.000000 1.000000 0.000000
vn -0.409789 0.883400 -0.227325
vn -0.418741 0.902699 0.098946
vn -0.331219 0.714024 0.616817
vn -0.420233 0.905916 0.052159
vn -0.212638 0.440055 0.872431
vn -0.341675 0.707098 0.619089
vn -0.430105 0.890104 0.150745
vn -0.796312 0.577956 -0.178477
vn -0.673886 0.489100 0.553768
vn 0.002294 0.999978 -0.006227
vn 0.002633 0.999968 -0.007480
vn 0.002942 0.999982 -0.005330
vn 0.008815 0.999557 0.028435
vn -0.015052 0.999881 -0.003373
vn 0.842046 0.505313 0.188726
vn 0.768700 0.386256 0.509810
vn -0.014791 0.982535 -0.185489
vn -0.028426 0.973033 -0.228908
vn 0.051555 0.998085 0.034192
vn 0.094379 0.995421 0.015183
vn 0.035008 0.999048 -0.026020
vn -0.030753 0.999266 0.022858
vn 0.002495 0.999717 0.023679
vn 0.005843 0.999845 0.016617
vn 0.000000 0.709881 0.704322
vn -0.453703 0.632612 0.627658
vn 0.068062 0.760357 0.645930
vn -0.481940 0.667777 0.567281
vn 0.039337 0.761534 0.646930
vn 0.376541 0.437034 0.816834
vn -0.046534 0.709112 0.703559
vn 0.242204 0.688745 0.683350
vn 0.353599 0.664020 0.658821
vn 0.000000 0.395583 0.918430
vn 0.147253 0.391273 0.908417
vn 0.000000 0.992430 -0.122808
vn -0.102760 0.972572 -0.208673
vn -0.050194 0.988648 -0.141616
vn 0.004087 0.998081 -0.061788
vn 0.000000 0.997280 -0.073708
vn 0.008814 0.999396 -0.033607
vn 0.007953 0.999177 -0.039789
vn -0.003383 0.999479 -0.032109
vn 0.294420 0.928220 0.227429
vn -0.028330 0.972772 -0.230027
vn 0.003038 0.997610 -0.069028
vn -0.409790 0.883400 -0.227325
vn -0.524267 0.851086 0.028218
vn -0.214762 0.762758 0.609982
vn -0.341676 0.707098 0.619089
vn -0.430106 0.890104 0.150745
vn -0.796312 0.577956 -0.178476
vn -0.388002 0.802971 0.452428
vn -0.588457 0.585097 0.558015
vn 0.000000 0.999967 0.008120
vn 0.002294 0.999997 -0.000058
vn 0.002633 0.999997 -0.000043
vn 0.003045 0.999995 -0.001067
vn 0.002942 0.999996 -0.000520
vn -0.015052 0.999881 -0.003374
vn 0.884448 0.444416 0.142287
vn 0.774741 0.539629 0.329511
vn 0.093867 0.990021 0.105107
vn 0.265621 0.875286 0.404128
vn 0.000244 0.999853 0.017125
vn 0.004353 0.999673 0.025179
vn 0.000000 0.999490 0.031949
vn -0.000000 0.999489 0.031949
vn 0.068062 0.760358 0.645928
vn 0.242204 0.688743 0.683352
vn 0.000000 0.395586 0.918429
s off
f 1//1 2//1 3//1
f 3//1 2//1 4//1
f 5//2 6//2 7//2
f 8//1 3//1 9//1
f 10//3 11//3 12//3
f 6//4 13//4 7//4
f 11//5 14//5 15//5
f 16//6 15//6 13//6
f 14//7 17//7 18//7
f 19//8 20//8 21//8
f 20//9 22//9 23//9
f 8//1 24//1 25//1
f 9//1 10//1 8//1
f 8//10 10//10 26//10
f 10//11 12//11 26//11
f 27//12 28//12 29//12
f 6//13 8//13 26//13
f 8//14 6//14 24//14
f 30//1 5//1 28//1
f 31//1 5//1 30//1
f 29//1 28//1 32//1
f 19//15 33//15 20//15
f 24//1 5//1 31//1
f 12//16 11//16 16//16
f 16//17 13//17 6//17
f 15//18 14//18 18//18
f 11//19 15//19 16//19
f 18//20 17//20 19//20
f 17//21 33//21 19//21
f 21//22 23//22 34//22
f 5//23 24//23 6//23
f 35//1 36//1 37//1
f 36//1 38//1 39//1
f 38//1 40//1 39//1
f 40//1 41//1 42//1
f 43//1 39//1 2//1
f 4//1 2//1 39//1
f 39//1 44//1 4//1
f 44//1 45//1 46//1
f 45//1 47//1 48//1
f 8//1 1//1 3//1
f 1//1 8//1 37//1
f 35//1 37//1 8//1
f 49//24 50//24 51//24
f 50//1 52//1 53//1
f 50//1 54//1 55//1
f 50//25 49//25 54//25
f 32//26 54//26 49//26
f 5//27 54//27 32//27
f 54//1 56//1 55//1
f 54//12 57//12 56//12
f 13//28 58//28 7//28
f 54//29 5//29 57//29
f 5//30 7//30 57//30
f 57//1 59//1 60//1
f 57//31 7//31 59//31
f 58//32 59//32 7//32
f 59//33 61//33 62//33
f 63//34 61//34 64//34
f 51//35 65//35 66//35
f 65//36 53//36 67//36
f 51//37 53//37 65//37
f 68//38 69//38 67//38
f 70//39 68//39 53//39
f 67//40 71//40 65//40
f 65//41 72//41 73//41
f 65//42 71//42 72//42
f 69//43 74//43 71//43
f 69//44 75//44 76//44
f 69//45 68//45 75//45
f 75//46 78//46 79//46
f 75//47 68//47 78//47
f 70//48 78//48 68//48
f 78//12 80//12 79//12
f 78//49 70//49 80//49
f 70//50 81//50 82//50
f 80//51 82//51 83//51
f 70//52 52//52 81//52
f 52//53 84//53 85//53
f 52//54 55//54 84//54
f 84//55 86//55 87//55
f 84//56 55//56 86//56
f 87//57 88//57 89//57
f 82//58 81//58 85//58
f 85//59 89//59 82//59
f 82//60 89//60 83//60
f 87//61 86//61 90//61
f 87//62 90//62 88//62
f 90//63 91//63 88//63
f 90//64 92//64 93//64
f 90//65 86//65 94//65
f 92//66 94//66 95//66
f 63//67 92//67 95//67
f 63//68 64//68 92//68
f 93//69 92//69 96//69
f 96//70 92//70 97//70
f 97//71 92//71 64//71
f 96//72 98//72 93//72
f 98//1 99//1 93//1
f 100//1 101//1 93//1
f 101//12 102//12 93//12
f 93//1 102//1 91//1
f 102//12 103//12 91//12
f 103//1 124//1 91//1
f 91//73 105//73 88//73
f 106//74 107//74 105//74
f 88//75 105//75 89//75
f 89//76 105//76 83//76
f 86//77 108//77 94//77
f 109//78 108//78 86//78
f 86//79 110//79 109//79
f 110//80 86//80 56//80
f 60//81 111//81 56//81
f 110//82 56//82 111//82
f 111//83 60//83 112//83
f 62//84 112//84 60//84
f 95//85 94//85 108//85
f 63//86 95//86 62//86
f 112//87 62//87 95//87
f 95//88 108//88 112//88
f 111//89 112//89 113//89
f 112//90 108//90 113//90
f 108//91 109//91 113//91
f 110//92 113//92 109//92
f 111//93 113//93 110//93
f 6//94 114//94 16//94
f 26//95 114//95 6//95
f 26//96 12//96 114//96
f 16//97 114//97 12//97
f 43//98 2//98 115//98
f 1//99 115//99 2//99
f 1//100 37//100 115//100
f 43//101 115//101 37//101
f 66//1 29//1 51//1
f 51//1 29//1 49//1
f 118//1 47//1 44//1
f 49//1 29//1 32//1
f 36//1 43//1 37//1
f 43//1 36//1 39//1
f 40//1 44//1 39//1
f 44//1 40//1 42//1
f 4//1 44//1 46//1
f 45//1 44//1 47//1
f 42//1 117//1 118//1
f 28//1 5//1 32//1
f 42//1 118//1 44//1
f 50//102 53//102 51//102
f 52//103 70//103 53//103
f 52//1 50//1 55//1
f 57//1 60//1 56//1
f 59//104 62//104 60//104
f 61//105 63//105 62//105
f 119//106 97//106 64//106
f 65//107 73//107 66//107
f 69//108 71//108 67//108
f 68//109 67//109 53//109
f 72//110 120//110 73//110
f 74//111 69//111 76//111
f 76//1 75//1 77//1
f 80//1 83//1 79//1
f 80//112 70//112 82//112
f 81//113 52//113 85//113
f 85//114 84//114 87//114
f 85//115 87//115 89//115
f 91//116 90//116 93//116
f 92//117 90//117 94//117
f 99//12 100//12 93//12
f 104//118 106//118 91//118
f 106//119 105//119 91//119
f 105//120 116//120 83//120
f 61//121 119//121 64//121
f 19//122 121//122 18//122
f 18//123 121//123 15//123
f 121//124 122//124 13//124
f 15//125 121//125 13//125
f 58//126 13//126 122//126
f 21//127 34//127 121//127
f 21//128 121//128 19//128
f 121//129 34//129 122//129
f 122//130 34//130 58//130
f 59//131 58//131 61//131
f 34//132 61//132 58//132
f 23//133 61//133 34//133
f 61//134 23//134 119//134
f 20//135 33//135 119//135
f 23//136 22//136 119//136
f 22//137 20//137 119//137
f 21//138 20//138 23//138
f 126//1 127//1 125//1
f 125//1 127//1 132//1
f 135//139 134//139 136//139
f 136//139 134//139 138//139
f 139//139 138//139 140//139
f 147//139 145//139 146//139
f 147//139 146//139 149//139
f 148//140 146//140 159//140
f 146//141 145//141 157//141
f 145//142 144//142 156//142
f 144//143 142//143 156//143
f 142//144 140//144 154//144
f 140//145 138//145 153//145
f 138//146 134//146 150//146
f 135//147 137//147 151//147
f 135//148 151//148 174//148
f 159//139 158//139 167//139
f 158//139 157//139 165//139
f 157//139 156//139 164//139
f 156//149 155//149 163//149
f 155//150 154//150 162//150
f 154//151 153//151 161//151
f 161//152 202//152 160//152
f 151//153 152//153 168//153
f 168//154 169//154 171//154
f 168//155 170//155 173//155
f 168//156 172//156 151//156
f 151//157 172//157 174//157
f 173//158 170//158 176//158
f 170//159 171//159 175//159
f 175//160 171//160 178//160
f 175//161 178//161 176//161
f 176//162 178//162 179//162
f 181//163 180//163 182//163
f 181//164 183//164 185//164
f 181//165 185//165 179//165
f 176//166 179//166 188//166
f 185//167 188//167 179//167
f 176//168 187//168 173//168
f 172//169 173//169 187//169
f 186//170 183//170 189//170
f 190//171 189//171 192//171
f 191//139 189//139 194//139
f 191//139 194//139 195//139
f 197//139 195//139 199//139
f 191//172 195//172 192//172
f 195//173 197//173 200//173
f 195//174 200//174 192//174
f 200//175 201//175 160//175
f 200//176 160//176 192//176
f 190//177 192//177 160//177
f 186//178 190//178 160//178
f 185//179 186//179 160//179
f 202//180 188//180 160//180
f 188//181 185//181 160//181
f 188//182 202//182 187//182
f 187//183 202//183 172//183
f 172//184 202//184 174//184
f 150//185 174//185 202//185
f 124//1 104//1 91//1
f 124//1 103//1 126//1
f 103//1 127//1 126//1
f 130//1 125//1 132//1
f 128//1 130//1 132//1
f 131//12 132//12 133//12
f 129//1 128//1 132//1
f 131//1 129//1 132//1
f 137//139 135//139 136//139
f 139//139 136//139 138//139
f 141//139 139//139 142//139
f 139//139 140//139 142//139
f 141//139 142//139 143//139
f 142//139 144//139 143//139
f 144//139 145//139 143//139
f 145//139 147//139 143//139
f 146//139 148//139 149//139
f 146//186 158//186 159//186
f 158//141 146//141 157//141
f 157//142 145//142 156//142
f 142//187 155//187 156//187
f 155//188 142//188 154//188
f 154//189 140//189 153//189
f 153//190 138//190 150//190
f 137//191 152//191 151//191
f 134//192 135//192 150//192
f 135//193 174//193 150//193
f 158//139 166//139 167//139
f 166//139 158//139 165//139
f 165//139 157//139 164//139
f 164//194 156//194 163//194
f 163//195 155//195 162//195
f 162//196 154//196 161//196
f 153//197 150//197 202//197
f 161//198 153//198 202//198
f 152//199 169//199 168//199
f 170//200 168//200 171//200
f 172//201 168//201 173//201
f 170//202 175//202 176//202
f 171//203 177//203 178//203
f 178//204 180//204 181//204
f 179//205 178//205 181//205
f 183//206 181//206 184//206
f 181//207 182//207 184//207
f 183//164 186//164 185//164
f 187//208 176//208 188//208
f 190//170 186//170 189//170
f 189//209 191//209 192//209
f 189//139 193//139 194//139
f 194//139 196//139 195//139
f 195//139 196//139 199//139
f 196//139 198//139 199//139
f 197//210 201//210 200//210
l 96 123
