# Blender v2.69 (sub 0) OBJ File: ''
# www.blender.org
mtllib water.mtl
o Plane.003
v -11.545099 4.745136 7.203540
v -6.748008 4.745136 7.478427
v -15.261974 4.745138 -5.772159
v -11.044610 4.386050 8.013436
v -7.781710 4.386050 8.013436
v -7.296584 -0.516358 8.575161
v -25.429451 -0.454026 26.217896
v 9.473138 -0.454026 26.250885
v -25.718212 -0.454024 9.514061
v -11.529736 -0.516358 8.575161
v -7.296584 -0.516358 7.944365
v -11.529736 -0.516358 7.944365
v -0.067807 4.745137 -0.844179
v -6.106081 4.745142 -25.312342
v -9.831906 4.745142 -25.312342
v -2.898053 -0.454022 3.115268
vt 0.630482 0.045705
vt 0.753222 0.007777
vt 0.617123 0.405745
vt 0.638113 0.020954
vt 0.160081 0.788664
vt 0.246055 0.796862
vt 0.134516 0.918742
vt 0.617123 0.008234
vt 0.617123 0.941397
vt 0.171344 0.000000
vt 0.024320 0.672507
vt 0.044419 0.659942
vt 0.027718 0.804355
vt 0.132100 0.774595
vt 0.044419 0.802004
vt 0.088518 0.826728
vt 0.072004 0.823305
vt 0.088518 0.682285
vt 0.640965 0.735516
vt 0.782982 0.734064
vt 0.641721 0.848647
vt 0.782982 0.862479
vt 0.979902 0.180497
vt 0.979902 0.853188
vt 0.883204 0.877115
vt 0.722796 0.000000
vt 0.246055 0.929378
vt 0.000000 0.609927
vn 0.000000 1.000000 0.000000
vn -0.023925 0.908351 0.417524
vn 0.000000 0.113837 0.993500
vn -0.811597 0.145155 0.565898
vn 0.414946 0.143999 0.898379
vn -0.999996 -0.002920 0.000000
vn 0.994609 -0.103700 0.000000
vn 0.000000 -0.139426 -0.990232
vn 0.056956 -0.093958 -0.993946
vn 0.000000 0.830317 0.557291
vn 0.000000 0.113837 0.993499
usemtl None.001
s off
f 1/1/1 2/2/1 3/3/1
f 2/2/2 1/1/2 4/4/2
f 5/5/3 4/6/3 6/7/3
f 7/8/1 8/9/1 9/10/1
f 4/11/4 1/12/4 10/13/4
f 5/5/5 6/7/5 2/14/5
f 10/13/6 1/12/6 12/15/6
f 6/16/7 11/17/7 2/18/7
f 12/19/8 1/20/8 11/21/8
f 11/21/9 1/20/9 2/22/9
f 2/2/1 13/23/1 3/3/1
f 13/23/1 14/24/1 15/25/1
f 3/3/1 13/23/1 15/25/1
f 5/26/10 2/2/10 4/4/10
f 4/6/11 10/27/11 6/7/11
f 8/9/1 16/28/1 9/10/1
